%TF.GenerationSoftware,KiCad,Pcbnew,9.0.5-9.0.5~ubuntu24.04.1*%
%TF.CreationDate,2025-11-04T21:28:18+01:00*%
%TF.ProjectId,main_board,6d61696e-5f62-46f6-9172-642e6b696361,rev?*%
%TF.SameCoordinates,Original*%
%TF.FileFunction,Drillmap*%
%TF.FilePolarity,Positive*%
%FSLAX45Y45*%
G04 Gerber Fmt 4.5, Leading zero omitted, Abs format (unit mm)*
G04 Created by KiCad (PCBNEW 9.0.5-9.0.5~ubuntu24.04.1) date 2025-11-04 21:28:18*
%MOMM*%
%LPD*%
G01*
G04 APERTURE LIST*
%ADD10C,0.050000*%
%ADD11C,0.200000*%
%ADD12C,0.100000*%
%ADD13C,0.119000*%
%ADD14C,0.150000*%
G04 APERTURE END LIST*
D10*
X8600000Y-4350000D02*
X18600000Y-4350000D01*
X18600000Y-12349590D02*
X8600000Y-12349590D01*
X18600000Y-4350000D02*
X18600000Y-12350000D01*
X8600000Y-12350000D02*
X8600000Y-4350000D01*
D11*
D12*
X9805000Y-9865000D02*
X9835000Y-9895000D01*
X9835000Y-9865000D02*
X9805000Y-9895000D01*
X9815000Y-10415000D02*
X9845000Y-10445000D01*
X9845000Y-10415000D02*
X9815000Y-10445000D01*
X9865000Y-5825000D02*
X9895000Y-5855000D01*
X9895000Y-5825000D02*
X9865000Y-5855000D01*
X10038955Y-7225000D02*
X10068955Y-7255000D01*
X10068955Y-7225000D02*
X10038955Y-7255000D01*
X10225000Y-5445000D02*
X10255000Y-5475000D01*
X10255000Y-5445000D02*
X10225000Y-5475000D01*
X10765000Y-5805000D02*
X10795000Y-5835000D01*
X10795000Y-5805000D02*
X10765000Y-5835000D01*
X10885000Y-7235000D02*
X10915000Y-7265000D01*
X10915000Y-7235000D02*
X10885000Y-7265000D01*
X10945000Y-6925000D02*
X10975000Y-6955000D01*
X10975000Y-6925000D02*
X10945000Y-6955000D01*
X11005000Y-7245000D02*
X11035000Y-7275000D01*
X11035000Y-7245000D02*
X11005000Y-7275000D01*
X11125000Y-5485000D02*
X11155000Y-5515000D01*
X11155000Y-5485000D02*
X11125000Y-5515000D01*
X11645000Y-5805000D02*
X11675000Y-5835000D01*
X11675000Y-5805000D02*
X11645000Y-5835000D01*
X11835000Y-8335000D02*
X11865000Y-8365000D01*
X11865000Y-8335000D02*
X11835000Y-8365000D01*
X12085000Y-6805000D02*
X12115000Y-6835000D01*
X12115000Y-6805000D02*
X12085000Y-6835000D01*
X12235000Y-7085000D02*
X12265000Y-7115000D01*
X12265000Y-7085000D02*
X12235000Y-7115000D01*
X12335000Y-6685000D02*
X12365000Y-6715000D01*
X12365000Y-6685000D02*
X12335000Y-6715000D01*
X12525000Y-8235000D02*
X12555000Y-8265000D01*
X12555000Y-8235000D02*
X12525000Y-8265000D01*
X12645000Y-8335000D02*
X12675000Y-8365000D01*
X12675000Y-8335000D02*
X12645000Y-8365000D01*
X12825000Y-5425000D02*
X12855000Y-5455000D01*
X12855000Y-5425000D02*
X12825000Y-5455000D01*
X13805000Y-6405000D02*
X13835000Y-6435000D01*
X13835000Y-6405000D02*
X13805000Y-6435000D01*
X14035000Y-6735000D02*
X14065000Y-6765000D01*
X14065000Y-6735000D02*
X14035000Y-6765000D01*
X14185000Y-5785000D02*
X14215000Y-5815000D01*
X14215000Y-5785000D02*
X14185000Y-5815000D01*
X14185000Y-5885000D02*
X14215000Y-5915000D01*
X14215000Y-5885000D02*
X14185000Y-5915000D01*
X14185000Y-6035000D02*
X14215000Y-6065000D01*
X14215000Y-6035000D02*
X14185000Y-6065000D01*
X14416634Y-8166634D02*
X14446634Y-8196634D01*
X14446634Y-8166634D02*
X14416634Y-8196634D01*
X14435000Y-7835000D02*
X14465000Y-7865000D01*
X14465000Y-7835000D02*
X14435000Y-7865000D01*
X14535000Y-7685000D02*
X14565000Y-7715000D01*
X14565000Y-7685000D02*
X14535000Y-7715000D01*
X14945000Y-8665000D02*
X14975000Y-8695000D01*
X14975000Y-8665000D02*
X14945000Y-8695000D01*
X15085000Y-10435000D02*
X15115000Y-10465000D01*
X15115000Y-10435000D02*
X15085000Y-10465000D01*
X15285000Y-10385000D02*
X15315000Y-10415000D01*
X15315000Y-10385000D02*
X15285000Y-10415000D01*
X15325000Y-8241569D02*
X15355000Y-8271569D01*
X15355000Y-8241569D02*
X15325000Y-8271569D01*
X15385000Y-8185000D02*
X15415000Y-8215000D01*
X15415000Y-8185000D02*
X15385000Y-8215000D01*
X15585000Y-8635000D02*
X15615000Y-8665000D01*
X15615000Y-8635000D02*
X15585000Y-8665000D01*
X15605000Y-11285000D02*
X15635000Y-11315000D01*
X15635000Y-11285000D02*
X15605000Y-11315000D01*
X15980969Y-6564695D02*
X16010969Y-6594695D01*
X16010969Y-6564695D02*
X15980969Y-6594695D01*
X16065000Y-6565000D02*
X16095000Y-6595000D01*
X16095000Y-6565000D02*
X16065000Y-6595000D01*
X16485000Y-6035000D02*
X16515000Y-6065000D01*
X16515000Y-6035000D02*
X16485000Y-6065000D01*
X16635000Y-5335000D02*
X16665000Y-5365000D01*
X16665000Y-5335000D02*
X16635000Y-5365000D01*
X16685000Y-6135000D02*
X16715000Y-6165000D01*
X16715000Y-6135000D02*
X16685000Y-6165000D01*
X16785000Y-4885000D02*
X16815000Y-4915000D01*
X16815000Y-4885000D02*
X16785000Y-4915000D01*
X16835000Y-10235000D02*
X16865000Y-10265000D01*
X16865000Y-10235000D02*
X16835000Y-10265000D01*
X16835000Y-10335000D02*
X16865000Y-10365000D01*
X16865000Y-10335000D02*
X16835000Y-10365000D01*
X16932509Y-8237491D02*
X16962509Y-8267491D01*
X16962509Y-8237491D02*
X16932509Y-8267491D01*
X16934900Y-5885000D02*
X16964900Y-5915000D01*
X16964900Y-5885000D02*
X16934900Y-5915000D01*
X16935000Y-5635000D02*
X16965000Y-5665000D01*
X16965000Y-5635000D02*
X16935000Y-5665000D01*
X17025000Y-5485000D02*
X17055000Y-5515000D01*
X17055000Y-5485000D02*
X17025000Y-5515000D01*
X17085000Y-4935000D02*
X17115000Y-4965000D01*
X17115000Y-4935000D02*
X17085000Y-4965000D01*
X17145000Y-5785000D02*
X17175000Y-5815000D01*
X17175000Y-5785000D02*
X17145000Y-5815000D01*
X11890000Y-6300000D02*
G75*
G02*
X11830000Y-6300000I-30000J0D01*
G01*
X11830000Y-6300000D02*
G75*
G02*
X11890000Y-6300000I30000J0D01*
G01*
X12750000Y-6420000D02*
G75*
G02*
X12690000Y-6420000I-30000J0D01*
G01*
X12690000Y-6420000D02*
G75*
G02*
X12750000Y-6420000I30000J0D01*
G01*
X12911634Y-8481634D02*
G75*
G02*
X12851634Y-8481634I-30000J0D01*
G01*
X12851634Y-8481634D02*
G75*
G02*
X12911634Y-8481634I30000J0D01*
G01*
X12911634Y-9381634D02*
G75*
G02*
X12851634Y-9381634I-30000J0D01*
G01*
X12851634Y-9381634D02*
G75*
G02*
X12911634Y-9381634I30000J0D01*
G01*
X13930000Y-4650000D02*
G75*
G02*
X13870000Y-4650000I-30000J0D01*
G01*
X13870000Y-4650000D02*
G75*
G02*
X13930000Y-4650000I30000J0D01*
G01*
X18180000Y-8200000D02*
G75*
G02*
X18120000Y-8200000I-30000J0D01*
G01*
X18120000Y-8200000D02*
G75*
G02*
X18180000Y-8200000I30000J0D01*
G01*
X8875000Y-9471000D02*
X8875000Y-9571000D01*
X8825000Y-9521000D02*
X8925000Y-9521000D01*
X8875000Y-9725000D02*
X8875000Y-9825000D01*
X8825000Y-9775000D02*
X8925000Y-9775000D01*
X13300000Y-11285000D02*
X13300000Y-11385000D01*
X13250000Y-11335000D02*
X13350000Y-11335000D01*
X13350000Y-11385000D02*
X13350000Y-11285000D01*
X13250000Y-11285000D02*
G75*
G02*
X13350000Y-11285000I50000J0D01*
G01*
X13250000Y-11285000D02*
X13250000Y-11385000D01*
X13250000Y-11385000D02*
G75*
G03*
X13350000Y-11385000I50000J0D01*
G01*
X13550000Y-11455000D02*
X13550000Y-11555000D01*
X13500000Y-11505000D02*
X13600000Y-11505000D01*
X13600000Y-11555000D02*
X13600000Y-11455000D01*
X13500000Y-11455000D02*
G75*
G02*
X13600000Y-11455000I50000J0D01*
G01*
X13500000Y-11455000D02*
X13500000Y-11555000D01*
X13500000Y-11555000D02*
G75*
G03*
X13600000Y-11555000I50000J0D01*
G01*
X13800000Y-12115000D02*
X13800000Y-12215000D01*
X13750000Y-12165000D02*
X13850000Y-12165000D01*
X13750000Y-12215000D02*
X13850000Y-12215000D01*
X13850000Y-12115000D02*
G75*
G02*
X13850000Y-12215000I0J-50000D01*
G01*
X13850000Y-12115000D02*
X13750000Y-12115000D01*
X13750000Y-12115000D02*
G75*
G03*
X13750000Y-12215000I0J-50000D01*
G01*
X14220000Y-11005000D02*
X14220000Y-11105000D01*
X14170000Y-11055000D02*
X14270000Y-11055000D01*
X14270000Y-11005000D02*
X14170000Y-11005000D01*
X14170000Y-11105000D02*
G75*
G02*
X14170000Y-11005000I0J50000D01*
G01*
X14170000Y-11105000D02*
X14270000Y-11105000D01*
X14270000Y-11105000D02*
G75*
G03*
X14270000Y-11005000I0J50000D01*
G01*
X14250000Y-11765000D02*
X14250000Y-11865000D01*
X14200000Y-11815000D02*
X14300000Y-11815000D01*
X14300000Y-11865000D02*
X14300000Y-11765000D01*
X14200000Y-11765000D02*
G75*
G02*
X14300000Y-11765000I50000J0D01*
G01*
X14200000Y-11765000D02*
X14200000Y-11865000D01*
X14200000Y-11865000D02*
G75*
G03*
X14300000Y-11865000I50000J0D01*
G01*
X17352500Y-4997500D02*
X17352500Y-5097500D01*
X17302500Y-5047500D02*
X17402500Y-5047500D01*
X17352500Y-5251500D02*
X17352500Y-5351500D01*
X17302500Y-5301500D02*
X17402500Y-5301500D01*
X17352500Y-5505500D02*
X17352500Y-5605500D01*
X17302500Y-5555500D02*
X17402500Y-5555500D01*
X17650000Y-8788000D02*
X17650000Y-8888000D01*
X17600000Y-8838000D02*
X17700000Y-8838000D01*
X17650000Y-9042000D02*
X17650000Y-9142000D01*
X17600000Y-9092000D02*
X17700000Y-9092000D01*
X17650000Y-9296000D02*
X17650000Y-9396000D01*
X17600000Y-9346000D02*
X17700000Y-9346000D01*
X17650000Y-9550000D02*
X17650000Y-9650000D01*
X17600000Y-9600000D02*
X17700000Y-9600000D01*
X17650000Y-9804000D02*
X17650000Y-9904000D01*
X17600000Y-9854000D02*
X17700000Y-9854000D01*
X17650000Y-10058000D02*
X17650000Y-10158000D01*
X17600000Y-10108000D02*
X17700000Y-10108000D01*
X17650000Y-10312000D02*
X17650000Y-10412000D01*
X17600000Y-10362000D02*
X17700000Y-10362000D01*
X17650000Y-10566000D02*
X17650000Y-10666000D01*
X17600000Y-10616000D02*
X17700000Y-10616000D01*
X17659478Y-7021113D02*
X17659478Y-7121113D01*
X17609478Y-7071113D02*
X17709478Y-7071113D01*
X17659478Y-7275113D02*
X17659478Y-7375113D01*
X17609478Y-7325113D02*
X17709478Y-7325113D01*
X17659478Y-7529113D02*
X17659478Y-7629113D01*
X17609478Y-7579113D02*
X17709478Y-7579113D01*
X17904000Y-8788000D02*
X17904000Y-8888000D01*
X17854000Y-8838000D02*
X17954000Y-8838000D01*
X17904000Y-9042000D02*
X17904000Y-9142000D01*
X17854000Y-9092000D02*
X17954000Y-9092000D01*
X17904000Y-9296000D02*
X17904000Y-9396000D01*
X17854000Y-9346000D02*
X17954000Y-9346000D01*
X17904000Y-9550000D02*
X17904000Y-9650000D01*
X17854000Y-9600000D02*
X17954000Y-9600000D01*
X17904000Y-9804000D02*
X17904000Y-9904000D01*
X17854000Y-9854000D02*
X17954000Y-9854000D01*
X17904000Y-10058000D02*
X17904000Y-10158000D01*
X17854000Y-10108000D02*
X17954000Y-10108000D01*
X17904000Y-10312000D02*
X17904000Y-10412000D01*
X17854000Y-10362000D02*
X17954000Y-10362000D01*
X17904000Y-10566000D02*
X17904000Y-10666000D01*
X17854000Y-10616000D02*
X17954000Y-10616000D01*
X17913478Y-7021113D02*
X17913478Y-7121113D01*
X17863478Y-7071113D02*
X17963478Y-7071113D01*
X17913478Y-7275113D02*
X17913478Y-7375113D01*
X17863478Y-7325113D02*
X17963478Y-7325113D01*
X17913478Y-7529113D02*
X17913478Y-7629113D01*
X17863478Y-7579113D02*
X17963478Y-7579113D01*
D13*
X9788073Y-4742073D02*
X9788073Y-4657927D01*
X9703927Y-4657927D01*
X9703927Y-4742073D01*
X9788073Y-4742073D01*
X10042073Y-4742073D02*
X10042073Y-4657927D01*
X9957927Y-4657927D01*
X9957927Y-4742073D01*
X10042073Y-4742073D01*
D14*
X15171749Y-5456129D02*
X15246749Y-5381129D01*
X15171749Y-5306129D01*
X15096749Y-5381129D01*
X15171749Y-5456129D01*
D11*
X10884000Y-9205000D02*
X11084000Y-9405000D01*
X11084000Y-9205000D02*
X10884000Y-9405000D01*
X11084000Y-9305000D02*
G75*
G02*
X10884000Y-9305000I-100000J0D01*
G01*
X10884000Y-9305000D02*
G75*
G02*
X11084000Y-9305000I100000J0D01*
G01*
X8858277Y-12663984D02*
X8858277Y-12463984D01*
X8858277Y-12463984D02*
X8905896Y-12463984D01*
X8905896Y-12463984D02*
X8934467Y-12473508D01*
X8934467Y-12473508D02*
X8953515Y-12492555D01*
X8953515Y-12492555D02*
X8963039Y-12511603D01*
X8963039Y-12511603D02*
X8972562Y-12549698D01*
X8972562Y-12549698D02*
X8972562Y-12578269D01*
X8972562Y-12578269D02*
X8963039Y-12616365D01*
X8963039Y-12616365D02*
X8953515Y-12635412D01*
X8953515Y-12635412D02*
X8934467Y-12654460D01*
X8934467Y-12654460D02*
X8905896Y-12663984D01*
X8905896Y-12663984D02*
X8858277Y-12663984D01*
X9058277Y-12663984D02*
X9058277Y-12530650D01*
X9058277Y-12568746D02*
X9067801Y-12549698D01*
X9067801Y-12549698D02*
X9077324Y-12540174D01*
X9077324Y-12540174D02*
X9096372Y-12530650D01*
X9096372Y-12530650D02*
X9115420Y-12530650D01*
X9182086Y-12663984D02*
X9182086Y-12530650D01*
X9182086Y-12463984D02*
X9172562Y-12473508D01*
X9172562Y-12473508D02*
X9182086Y-12483031D01*
X9182086Y-12483031D02*
X9191610Y-12473508D01*
X9191610Y-12473508D02*
X9182086Y-12463984D01*
X9182086Y-12463984D02*
X9182086Y-12483031D01*
X9305896Y-12663984D02*
X9286848Y-12654460D01*
X9286848Y-12654460D02*
X9277324Y-12635412D01*
X9277324Y-12635412D02*
X9277324Y-12463984D01*
X9410658Y-12663984D02*
X9391610Y-12654460D01*
X9391610Y-12654460D02*
X9382086Y-12635412D01*
X9382086Y-12635412D02*
X9382086Y-12463984D01*
X9639229Y-12663984D02*
X9639229Y-12463984D01*
X9639229Y-12463984D02*
X9705896Y-12606841D01*
X9705896Y-12606841D02*
X9772562Y-12463984D01*
X9772562Y-12463984D02*
X9772562Y-12663984D01*
X9953515Y-12663984D02*
X9953515Y-12559222D01*
X9953515Y-12559222D02*
X9943991Y-12540174D01*
X9943991Y-12540174D02*
X9924943Y-12530650D01*
X9924943Y-12530650D02*
X9886848Y-12530650D01*
X9886848Y-12530650D02*
X9867801Y-12540174D01*
X9953515Y-12654460D02*
X9934467Y-12663984D01*
X9934467Y-12663984D02*
X9886848Y-12663984D01*
X9886848Y-12663984D02*
X9867801Y-12654460D01*
X9867801Y-12654460D02*
X9858277Y-12635412D01*
X9858277Y-12635412D02*
X9858277Y-12616365D01*
X9858277Y-12616365D02*
X9867801Y-12597317D01*
X9867801Y-12597317D02*
X9886848Y-12587793D01*
X9886848Y-12587793D02*
X9934467Y-12587793D01*
X9934467Y-12587793D02*
X9953515Y-12578269D01*
X10048753Y-12530650D02*
X10048753Y-12730650D01*
X10048753Y-12540174D02*
X10067801Y-12530650D01*
X10067801Y-12530650D02*
X10105896Y-12530650D01*
X10105896Y-12530650D02*
X10124943Y-12540174D01*
X10124943Y-12540174D02*
X10134467Y-12549698D01*
X10134467Y-12549698D02*
X10143991Y-12568746D01*
X10143991Y-12568746D02*
X10143991Y-12625888D01*
X10143991Y-12625888D02*
X10134467Y-12644936D01*
X10134467Y-12644936D02*
X10124943Y-12654460D01*
X10124943Y-12654460D02*
X10105896Y-12663984D01*
X10105896Y-12663984D02*
X10067801Y-12663984D01*
X10067801Y-12663984D02*
X10048753Y-12654460D01*
X10229705Y-12644936D02*
X10239229Y-12654460D01*
X10239229Y-12654460D02*
X10229705Y-12663984D01*
X10229705Y-12663984D02*
X10220182Y-12654460D01*
X10220182Y-12654460D02*
X10229705Y-12644936D01*
X10229705Y-12644936D02*
X10229705Y-12663984D01*
X10229705Y-12540174D02*
X10239229Y-12549698D01*
X10239229Y-12549698D02*
X10229705Y-12559222D01*
X10229705Y-12559222D02*
X10220182Y-12549698D01*
X10220182Y-12549698D02*
X10229705Y-12540174D01*
X10229705Y-12540174D02*
X10229705Y-12559222D01*
D12*
X8567500Y-12977500D02*
X8597500Y-13007500D01*
X8597500Y-12977500D02*
X8567500Y-13007500D01*
D11*
X8896372Y-12883984D02*
X8915420Y-12883984D01*
X8915420Y-12883984D02*
X8934467Y-12893508D01*
X8934467Y-12893508D02*
X8943991Y-12903031D01*
X8943991Y-12903031D02*
X8953515Y-12922079D01*
X8953515Y-12922079D02*
X8963039Y-12960174D01*
X8963039Y-12960174D02*
X8963039Y-13007793D01*
X8963039Y-13007793D02*
X8953515Y-13045888D01*
X8953515Y-13045888D02*
X8943991Y-13064936D01*
X8943991Y-13064936D02*
X8934467Y-13074460D01*
X8934467Y-13074460D02*
X8915420Y-13083984D01*
X8915420Y-13083984D02*
X8896372Y-13083984D01*
X8896372Y-13083984D02*
X8877324Y-13074460D01*
X8877324Y-13074460D02*
X8867801Y-13064936D01*
X8867801Y-13064936D02*
X8858277Y-13045888D01*
X8858277Y-13045888D02*
X8848753Y-13007793D01*
X8848753Y-13007793D02*
X8848753Y-12960174D01*
X8848753Y-12960174D02*
X8858277Y-12922079D01*
X8858277Y-12922079D02*
X8867801Y-12903031D01*
X8867801Y-12903031D02*
X8877324Y-12893508D01*
X8877324Y-12893508D02*
X8896372Y-12883984D01*
X9048753Y-13064936D02*
X9058277Y-13074460D01*
X9058277Y-13074460D02*
X9048753Y-13083984D01*
X9048753Y-13083984D02*
X9039229Y-13074460D01*
X9039229Y-13074460D02*
X9048753Y-13064936D01*
X9048753Y-13064936D02*
X9048753Y-13083984D01*
X9124943Y-12883984D02*
X9248753Y-12883984D01*
X9248753Y-12883984D02*
X9182086Y-12960174D01*
X9182086Y-12960174D02*
X9210658Y-12960174D01*
X9210658Y-12960174D02*
X9229705Y-12969698D01*
X9229705Y-12969698D02*
X9239229Y-12979222D01*
X9239229Y-12979222D02*
X9248753Y-12998269D01*
X9248753Y-12998269D02*
X9248753Y-13045888D01*
X9248753Y-13045888D02*
X9239229Y-13064936D01*
X9239229Y-13064936D02*
X9229705Y-13074460D01*
X9229705Y-13074460D02*
X9210658Y-13083984D01*
X9210658Y-13083984D02*
X9153515Y-13083984D01*
X9153515Y-13083984D02*
X9134467Y-13074460D01*
X9134467Y-13074460D02*
X9124943Y-13064936D01*
X9372562Y-12883984D02*
X9391610Y-12883984D01*
X9391610Y-12883984D02*
X9410658Y-12893508D01*
X9410658Y-12893508D02*
X9420182Y-12903031D01*
X9420182Y-12903031D02*
X9429705Y-12922079D01*
X9429705Y-12922079D02*
X9439229Y-12960174D01*
X9439229Y-12960174D02*
X9439229Y-13007793D01*
X9439229Y-13007793D02*
X9429705Y-13045888D01*
X9429705Y-13045888D02*
X9420182Y-13064936D01*
X9420182Y-13064936D02*
X9410658Y-13074460D01*
X9410658Y-13074460D02*
X9391610Y-13083984D01*
X9391610Y-13083984D02*
X9372562Y-13083984D01*
X9372562Y-13083984D02*
X9353515Y-13074460D01*
X9353515Y-13074460D02*
X9343991Y-13064936D01*
X9343991Y-13064936D02*
X9334467Y-13045888D01*
X9334467Y-13045888D02*
X9324943Y-13007793D01*
X9324943Y-13007793D02*
X9324943Y-12960174D01*
X9324943Y-12960174D02*
X9334467Y-12922079D01*
X9334467Y-12922079D02*
X9343991Y-12903031D01*
X9343991Y-12903031D02*
X9353515Y-12893508D01*
X9353515Y-12893508D02*
X9372562Y-12883984D01*
X9563039Y-12883984D02*
X9582086Y-12883984D01*
X9582086Y-12883984D02*
X9601134Y-12893508D01*
X9601134Y-12893508D02*
X9610658Y-12903031D01*
X9610658Y-12903031D02*
X9620182Y-12922079D01*
X9620182Y-12922079D02*
X9629705Y-12960174D01*
X9629705Y-12960174D02*
X9629705Y-13007793D01*
X9629705Y-13007793D02*
X9620182Y-13045888D01*
X9620182Y-13045888D02*
X9610658Y-13064936D01*
X9610658Y-13064936D02*
X9601134Y-13074460D01*
X9601134Y-13074460D02*
X9582086Y-13083984D01*
X9582086Y-13083984D02*
X9563039Y-13083984D01*
X9563039Y-13083984D02*
X9543991Y-13074460D01*
X9543991Y-13074460D02*
X9534467Y-13064936D01*
X9534467Y-13064936D02*
X9524943Y-13045888D01*
X9524943Y-13045888D02*
X9515420Y-13007793D01*
X9515420Y-13007793D02*
X9515420Y-12960174D01*
X9515420Y-12960174D02*
X9524943Y-12922079D01*
X9524943Y-12922079D02*
X9534467Y-12903031D01*
X9534467Y-12903031D02*
X9543991Y-12893508D01*
X9543991Y-12893508D02*
X9563039Y-12883984D01*
X9715420Y-13083984D02*
X9715420Y-12950650D01*
X9715420Y-12969698D02*
X9724943Y-12960174D01*
X9724943Y-12960174D02*
X9743991Y-12950650D01*
X9743991Y-12950650D02*
X9772563Y-12950650D01*
X9772563Y-12950650D02*
X9791610Y-12960174D01*
X9791610Y-12960174D02*
X9801134Y-12979222D01*
X9801134Y-12979222D02*
X9801134Y-13083984D01*
X9801134Y-12979222D02*
X9810658Y-12960174D01*
X9810658Y-12960174D02*
X9829705Y-12950650D01*
X9829705Y-12950650D02*
X9858277Y-12950650D01*
X9858277Y-12950650D02*
X9877324Y-12960174D01*
X9877324Y-12960174D02*
X9886848Y-12979222D01*
X9886848Y-12979222D02*
X9886848Y-13083984D01*
X9982086Y-13083984D02*
X9982086Y-12950650D01*
X9982086Y-12969698D02*
X9991610Y-12960174D01*
X9991610Y-12960174D02*
X10010658Y-12950650D01*
X10010658Y-12950650D02*
X10039229Y-12950650D01*
X10039229Y-12950650D02*
X10058277Y-12960174D01*
X10058277Y-12960174D02*
X10067801Y-12979222D01*
X10067801Y-12979222D02*
X10067801Y-13083984D01*
X10067801Y-12979222D02*
X10077324Y-12960174D01*
X10077324Y-12960174D02*
X10096372Y-12950650D01*
X10096372Y-12950650D02*
X10124943Y-12950650D01*
X10124943Y-12950650D02*
X10143991Y-12960174D01*
X10143991Y-12960174D02*
X10153515Y-12979222D01*
X10153515Y-12979222D02*
X10153515Y-13083984D01*
X10543991Y-12874460D02*
X10372563Y-13131603D01*
X10801134Y-12883984D02*
X10820182Y-12883984D01*
X10820182Y-12883984D02*
X10839229Y-12893508D01*
X10839229Y-12893508D02*
X10848753Y-12903031D01*
X10848753Y-12903031D02*
X10858277Y-12922079D01*
X10858277Y-12922079D02*
X10867801Y-12960174D01*
X10867801Y-12960174D02*
X10867801Y-13007793D01*
X10867801Y-13007793D02*
X10858277Y-13045888D01*
X10858277Y-13045888D02*
X10848753Y-13064936D01*
X10848753Y-13064936D02*
X10839229Y-13074460D01*
X10839229Y-13074460D02*
X10820182Y-13083984D01*
X10820182Y-13083984D02*
X10801134Y-13083984D01*
X10801134Y-13083984D02*
X10782086Y-13074460D01*
X10782086Y-13074460D02*
X10772563Y-13064936D01*
X10772563Y-13064936D02*
X10763039Y-13045888D01*
X10763039Y-13045888D02*
X10753515Y-13007793D01*
X10753515Y-13007793D02*
X10753515Y-12960174D01*
X10753515Y-12960174D02*
X10763039Y-12922079D01*
X10763039Y-12922079D02*
X10772563Y-12903031D01*
X10772563Y-12903031D02*
X10782086Y-12893508D01*
X10782086Y-12893508D02*
X10801134Y-12883984D01*
X10953515Y-13064936D02*
X10963039Y-13074460D01*
X10963039Y-13074460D02*
X10953515Y-13083984D01*
X10953515Y-13083984D02*
X10943991Y-13074460D01*
X10943991Y-13074460D02*
X10953515Y-13064936D01*
X10953515Y-13064936D02*
X10953515Y-13083984D01*
X11086848Y-12883984D02*
X11105896Y-12883984D01*
X11105896Y-12883984D02*
X11124944Y-12893508D01*
X11124944Y-12893508D02*
X11134467Y-12903031D01*
X11134467Y-12903031D02*
X11143991Y-12922079D01*
X11143991Y-12922079D02*
X11153515Y-12960174D01*
X11153515Y-12960174D02*
X11153515Y-13007793D01*
X11153515Y-13007793D02*
X11143991Y-13045888D01*
X11143991Y-13045888D02*
X11134467Y-13064936D01*
X11134467Y-13064936D02*
X11124944Y-13074460D01*
X11124944Y-13074460D02*
X11105896Y-13083984D01*
X11105896Y-13083984D02*
X11086848Y-13083984D01*
X11086848Y-13083984D02*
X11067801Y-13074460D01*
X11067801Y-13074460D02*
X11058277Y-13064936D01*
X11058277Y-13064936D02*
X11048753Y-13045888D01*
X11048753Y-13045888D02*
X11039229Y-13007793D01*
X11039229Y-13007793D02*
X11039229Y-12960174D01*
X11039229Y-12960174D02*
X11048753Y-12922079D01*
X11048753Y-12922079D02*
X11058277Y-12903031D01*
X11058277Y-12903031D02*
X11067801Y-12893508D01*
X11067801Y-12893508D02*
X11086848Y-12883984D01*
X11343991Y-13083984D02*
X11229705Y-13083984D01*
X11286848Y-13083984D02*
X11286848Y-12883984D01*
X11286848Y-12883984D02*
X11267801Y-12912555D01*
X11267801Y-12912555D02*
X11248753Y-12931603D01*
X11248753Y-12931603D02*
X11229705Y-12941127D01*
X11534467Y-13083984D02*
X11420182Y-13083984D01*
X11477324Y-13083984D02*
X11477324Y-12883984D01*
X11477324Y-12883984D02*
X11458277Y-12912555D01*
X11458277Y-12912555D02*
X11439229Y-12931603D01*
X11439229Y-12931603D02*
X11420182Y-12941127D01*
X11648753Y-12969698D02*
X11629705Y-12960174D01*
X11629705Y-12960174D02*
X11620182Y-12950650D01*
X11620182Y-12950650D02*
X11610658Y-12931603D01*
X11610658Y-12931603D02*
X11610658Y-12922079D01*
X11610658Y-12922079D02*
X11620182Y-12903031D01*
X11620182Y-12903031D02*
X11629705Y-12893508D01*
X11629705Y-12893508D02*
X11648753Y-12883984D01*
X11648753Y-12883984D02*
X11686848Y-12883984D01*
X11686848Y-12883984D02*
X11705896Y-12893508D01*
X11705896Y-12893508D02*
X11715420Y-12903031D01*
X11715420Y-12903031D02*
X11724944Y-12922079D01*
X11724944Y-12922079D02*
X11724944Y-12931603D01*
X11724944Y-12931603D02*
X11715420Y-12950650D01*
X11715420Y-12950650D02*
X11705896Y-12960174D01*
X11705896Y-12960174D02*
X11686848Y-12969698D01*
X11686848Y-12969698D02*
X11648753Y-12969698D01*
X11648753Y-12969698D02*
X11629705Y-12979222D01*
X11629705Y-12979222D02*
X11620182Y-12988746D01*
X11620182Y-12988746D02*
X11610658Y-13007793D01*
X11610658Y-13007793D02*
X11610658Y-13045888D01*
X11610658Y-13045888D02*
X11620182Y-13064936D01*
X11620182Y-13064936D02*
X11629705Y-13074460D01*
X11629705Y-13074460D02*
X11648753Y-13083984D01*
X11648753Y-13083984D02*
X11686848Y-13083984D01*
X11686848Y-13083984D02*
X11705896Y-13074460D01*
X11705896Y-13074460D02*
X11715420Y-13064936D01*
X11715420Y-13064936D02*
X11724944Y-13045888D01*
X11724944Y-13045888D02*
X11724944Y-13007793D01*
X11724944Y-13007793D02*
X11715420Y-12988746D01*
X11715420Y-12988746D02*
X11705896Y-12979222D01*
X11705896Y-12979222D02*
X11686848Y-12969698D01*
X11801134Y-12883984D02*
X11801134Y-12922079D01*
X11877325Y-12883984D02*
X11877325Y-12922079D01*
X12172563Y-13160174D02*
X12163039Y-13150650D01*
X12163039Y-13150650D02*
X12143991Y-13122079D01*
X12143991Y-13122079D02*
X12134467Y-13103031D01*
X12134467Y-13103031D02*
X12124944Y-13074460D01*
X12124944Y-13074460D02*
X12115420Y-13026841D01*
X12115420Y-13026841D02*
X12115420Y-12988746D01*
X12115420Y-12988746D02*
X12124944Y-12941127D01*
X12124944Y-12941127D02*
X12134467Y-12912555D01*
X12134467Y-12912555D02*
X12143991Y-12893508D01*
X12143991Y-12893508D02*
X12163039Y-12864936D01*
X12163039Y-12864936D02*
X12172563Y-12855412D01*
X12334467Y-12950650D02*
X12334467Y-13083984D01*
X12286848Y-12874460D02*
X12239229Y-13017317D01*
X12239229Y-13017317D02*
X12363039Y-13017317D01*
X12420182Y-12883984D02*
X12553515Y-12883984D01*
X12553515Y-12883984D02*
X12467801Y-13083984D01*
X12782087Y-13083984D02*
X12782087Y-12883984D01*
X12867801Y-13083984D02*
X12867801Y-12979222D01*
X12867801Y-12979222D02*
X12858277Y-12960174D01*
X12858277Y-12960174D02*
X12839229Y-12950650D01*
X12839229Y-12950650D02*
X12810658Y-12950650D01*
X12810658Y-12950650D02*
X12791610Y-12960174D01*
X12791610Y-12960174D02*
X12782087Y-12969698D01*
X12991610Y-13083984D02*
X12972563Y-13074460D01*
X12972563Y-13074460D02*
X12963039Y-13064936D01*
X12963039Y-13064936D02*
X12953515Y-13045888D01*
X12953515Y-13045888D02*
X12953515Y-12988746D01*
X12953515Y-12988746D02*
X12963039Y-12969698D01*
X12963039Y-12969698D02*
X12972563Y-12960174D01*
X12972563Y-12960174D02*
X12991610Y-12950650D01*
X12991610Y-12950650D02*
X13020182Y-12950650D01*
X13020182Y-12950650D02*
X13039229Y-12960174D01*
X13039229Y-12960174D02*
X13048753Y-12969698D01*
X13048753Y-12969698D02*
X13058277Y-12988746D01*
X13058277Y-12988746D02*
X13058277Y-13045888D01*
X13058277Y-13045888D02*
X13048753Y-13064936D01*
X13048753Y-13064936D02*
X13039229Y-13074460D01*
X13039229Y-13074460D02*
X13020182Y-13083984D01*
X13020182Y-13083984D02*
X12991610Y-13083984D01*
X13172563Y-13083984D02*
X13153515Y-13074460D01*
X13153515Y-13074460D02*
X13143991Y-13055412D01*
X13143991Y-13055412D02*
X13143991Y-12883984D01*
X13324944Y-13074460D02*
X13305896Y-13083984D01*
X13305896Y-13083984D02*
X13267801Y-13083984D01*
X13267801Y-13083984D02*
X13248753Y-13074460D01*
X13248753Y-13074460D02*
X13239229Y-13055412D01*
X13239229Y-13055412D02*
X13239229Y-12979222D01*
X13239229Y-12979222D02*
X13248753Y-12960174D01*
X13248753Y-12960174D02*
X13267801Y-12950650D01*
X13267801Y-12950650D02*
X13305896Y-12950650D01*
X13305896Y-12950650D02*
X13324944Y-12960174D01*
X13324944Y-12960174D02*
X13334468Y-12979222D01*
X13334468Y-12979222D02*
X13334468Y-12998269D01*
X13334468Y-12998269D02*
X13239229Y-13017317D01*
X13410658Y-13074460D02*
X13429706Y-13083984D01*
X13429706Y-13083984D02*
X13467801Y-13083984D01*
X13467801Y-13083984D02*
X13486849Y-13074460D01*
X13486849Y-13074460D02*
X13496372Y-13055412D01*
X13496372Y-13055412D02*
X13496372Y-13045888D01*
X13496372Y-13045888D02*
X13486849Y-13026841D01*
X13486849Y-13026841D02*
X13467801Y-13017317D01*
X13467801Y-13017317D02*
X13439229Y-13017317D01*
X13439229Y-13017317D02*
X13420182Y-13007793D01*
X13420182Y-13007793D02*
X13410658Y-12988746D01*
X13410658Y-12988746D02*
X13410658Y-12979222D01*
X13410658Y-12979222D02*
X13420182Y-12960174D01*
X13420182Y-12960174D02*
X13439229Y-12950650D01*
X13439229Y-12950650D02*
X13467801Y-12950650D01*
X13467801Y-12950650D02*
X13486849Y-12960174D01*
X13563039Y-13160174D02*
X13572563Y-13150650D01*
X13572563Y-13150650D02*
X13591610Y-13122079D01*
X13591610Y-13122079D02*
X13601134Y-13103031D01*
X13601134Y-13103031D02*
X13610658Y-13074460D01*
X13610658Y-13074460D02*
X13620182Y-13026841D01*
X13620182Y-13026841D02*
X13620182Y-12988746D01*
X13620182Y-12988746D02*
X13610658Y-12941127D01*
X13610658Y-12941127D02*
X13601134Y-12912555D01*
X13601134Y-12912555D02*
X13591610Y-12893508D01*
X13591610Y-12893508D02*
X13572563Y-12864936D01*
X13572563Y-12864936D02*
X13563039Y-12855412D01*
D12*
X8597500Y-13256500D02*
G75*
G02*
X8537500Y-13256500I-30000J0D01*
G01*
X8537500Y-13256500D02*
G75*
G02*
X8597500Y-13256500I30000J0D01*
G01*
D11*
X8896372Y-13147984D02*
X8915420Y-13147984D01*
X8915420Y-13147984D02*
X8934467Y-13157508D01*
X8934467Y-13157508D02*
X8943991Y-13167031D01*
X8943991Y-13167031D02*
X8953515Y-13186079D01*
X8953515Y-13186079D02*
X8963039Y-13224174D01*
X8963039Y-13224174D02*
X8963039Y-13271793D01*
X8963039Y-13271793D02*
X8953515Y-13309888D01*
X8953515Y-13309888D02*
X8943991Y-13328936D01*
X8943991Y-13328936D02*
X8934467Y-13338460D01*
X8934467Y-13338460D02*
X8915420Y-13347984D01*
X8915420Y-13347984D02*
X8896372Y-13347984D01*
X8896372Y-13347984D02*
X8877324Y-13338460D01*
X8877324Y-13338460D02*
X8867801Y-13328936D01*
X8867801Y-13328936D02*
X8858277Y-13309888D01*
X8858277Y-13309888D02*
X8848753Y-13271793D01*
X8848753Y-13271793D02*
X8848753Y-13224174D01*
X8848753Y-13224174D02*
X8858277Y-13186079D01*
X8858277Y-13186079D02*
X8867801Y-13167031D01*
X8867801Y-13167031D02*
X8877324Y-13157508D01*
X8877324Y-13157508D02*
X8896372Y-13147984D01*
X9048753Y-13328936D02*
X9058277Y-13338460D01*
X9058277Y-13338460D02*
X9048753Y-13347984D01*
X9048753Y-13347984D02*
X9039229Y-13338460D01*
X9039229Y-13338460D02*
X9048753Y-13328936D01*
X9048753Y-13328936D02*
X9048753Y-13347984D01*
X9229705Y-13147984D02*
X9191610Y-13147984D01*
X9191610Y-13147984D02*
X9172562Y-13157508D01*
X9172562Y-13157508D02*
X9163039Y-13167031D01*
X9163039Y-13167031D02*
X9143991Y-13195603D01*
X9143991Y-13195603D02*
X9134467Y-13233698D01*
X9134467Y-13233698D02*
X9134467Y-13309888D01*
X9134467Y-13309888D02*
X9143991Y-13328936D01*
X9143991Y-13328936D02*
X9153515Y-13338460D01*
X9153515Y-13338460D02*
X9172562Y-13347984D01*
X9172562Y-13347984D02*
X9210658Y-13347984D01*
X9210658Y-13347984D02*
X9229705Y-13338460D01*
X9229705Y-13338460D02*
X9239229Y-13328936D01*
X9239229Y-13328936D02*
X9248753Y-13309888D01*
X9248753Y-13309888D02*
X9248753Y-13262269D01*
X9248753Y-13262269D02*
X9239229Y-13243222D01*
X9239229Y-13243222D02*
X9229705Y-13233698D01*
X9229705Y-13233698D02*
X9210658Y-13224174D01*
X9210658Y-13224174D02*
X9172562Y-13224174D01*
X9172562Y-13224174D02*
X9153515Y-13233698D01*
X9153515Y-13233698D02*
X9143991Y-13243222D01*
X9143991Y-13243222D02*
X9134467Y-13262269D01*
X9372562Y-13147984D02*
X9391610Y-13147984D01*
X9391610Y-13147984D02*
X9410658Y-13157508D01*
X9410658Y-13157508D02*
X9420182Y-13167031D01*
X9420182Y-13167031D02*
X9429705Y-13186079D01*
X9429705Y-13186079D02*
X9439229Y-13224174D01*
X9439229Y-13224174D02*
X9439229Y-13271793D01*
X9439229Y-13271793D02*
X9429705Y-13309888D01*
X9429705Y-13309888D02*
X9420182Y-13328936D01*
X9420182Y-13328936D02*
X9410658Y-13338460D01*
X9410658Y-13338460D02*
X9391610Y-13347984D01*
X9391610Y-13347984D02*
X9372562Y-13347984D01*
X9372562Y-13347984D02*
X9353515Y-13338460D01*
X9353515Y-13338460D02*
X9343991Y-13328936D01*
X9343991Y-13328936D02*
X9334467Y-13309888D01*
X9334467Y-13309888D02*
X9324943Y-13271793D01*
X9324943Y-13271793D02*
X9324943Y-13224174D01*
X9324943Y-13224174D02*
X9334467Y-13186079D01*
X9334467Y-13186079D02*
X9343991Y-13167031D01*
X9343991Y-13167031D02*
X9353515Y-13157508D01*
X9353515Y-13157508D02*
X9372562Y-13147984D01*
X9563039Y-13147984D02*
X9582086Y-13147984D01*
X9582086Y-13147984D02*
X9601134Y-13157508D01*
X9601134Y-13157508D02*
X9610658Y-13167031D01*
X9610658Y-13167031D02*
X9620182Y-13186079D01*
X9620182Y-13186079D02*
X9629705Y-13224174D01*
X9629705Y-13224174D02*
X9629705Y-13271793D01*
X9629705Y-13271793D02*
X9620182Y-13309888D01*
X9620182Y-13309888D02*
X9610658Y-13328936D01*
X9610658Y-13328936D02*
X9601134Y-13338460D01*
X9601134Y-13338460D02*
X9582086Y-13347984D01*
X9582086Y-13347984D02*
X9563039Y-13347984D01*
X9563039Y-13347984D02*
X9543991Y-13338460D01*
X9543991Y-13338460D02*
X9534467Y-13328936D01*
X9534467Y-13328936D02*
X9524943Y-13309888D01*
X9524943Y-13309888D02*
X9515420Y-13271793D01*
X9515420Y-13271793D02*
X9515420Y-13224174D01*
X9515420Y-13224174D02*
X9524943Y-13186079D01*
X9524943Y-13186079D02*
X9534467Y-13167031D01*
X9534467Y-13167031D02*
X9543991Y-13157508D01*
X9543991Y-13157508D02*
X9563039Y-13147984D01*
X9715420Y-13347984D02*
X9715420Y-13214650D01*
X9715420Y-13233698D02*
X9724943Y-13224174D01*
X9724943Y-13224174D02*
X9743991Y-13214650D01*
X9743991Y-13214650D02*
X9772563Y-13214650D01*
X9772563Y-13214650D02*
X9791610Y-13224174D01*
X9791610Y-13224174D02*
X9801134Y-13243222D01*
X9801134Y-13243222D02*
X9801134Y-13347984D01*
X9801134Y-13243222D02*
X9810658Y-13224174D01*
X9810658Y-13224174D02*
X9829705Y-13214650D01*
X9829705Y-13214650D02*
X9858277Y-13214650D01*
X9858277Y-13214650D02*
X9877324Y-13224174D01*
X9877324Y-13224174D02*
X9886848Y-13243222D01*
X9886848Y-13243222D02*
X9886848Y-13347984D01*
X9982086Y-13347984D02*
X9982086Y-13214650D01*
X9982086Y-13233698D02*
X9991610Y-13224174D01*
X9991610Y-13224174D02*
X10010658Y-13214650D01*
X10010658Y-13214650D02*
X10039229Y-13214650D01*
X10039229Y-13214650D02*
X10058277Y-13224174D01*
X10058277Y-13224174D02*
X10067801Y-13243222D01*
X10067801Y-13243222D02*
X10067801Y-13347984D01*
X10067801Y-13243222D02*
X10077324Y-13224174D01*
X10077324Y-13224174D02*
X10096372Y-13214650D01*
X10096372Y-13214650D02*
X10124943Y-13214650D01*
X10124943Y-13214650D02*
X10143991Y-13224174D01*
X10143991Y-13224174D02*
X10153515Y-13243222D01*
X10153515Y-13243222D02*
X10153515Y-13347984D01*
X10543991Y-13138460D02*
X10372563Y-13395603D01*
X10801134Y-13147984D02*
X10820182Y-13147984D01*
X10820182Y-13147984D02*
X10839229Y-13157508D01*
X10839229Y-13157508D02*
X10848753Y-13167031D01*
X10848753Y-13167031D02*
X10858277Y-13186079D01*
X10858277Y-13186079D02*
X10867801Y-13224174D01*
X10867801Y-13224174D02*
X10867801Y-13271793D01*
X10867801Y-13271793D02*
X10858277Y-13309888D01*
X10858277Y-13309888D02*
X10848753Y-13328936D01*
X10848753Y-13328936D02*
X10839229Y-13338460D01*
X10839229Y-13338460D02*
X10820182Y-13347984D01*
X10820182Y-13347984D02*
X10801134Y-13347984D01*
X10801134Y-13347984D02*
X10782086Y-13338460D01*
X10782086Y-13338460D02*
X10772563Y-13328936D01*
X10772563Y-13328936D02*
X10763039Y-13309888D01*
X10763039Y-13309888D02*
X10753515Y-13271793D01*
X10753515Y-13271793D02*
X10753515Y-13224174D01*
X10753515Y-13224174D02*
X10763039Y-13186079D01*
X10763039Y-13186079D02*
X10772563Y-13167031D01*
X10772563Y-13167031D02*
X10782086Y-13157508D01*
X10782086Y-13157508D02*
X10801134Y-13147984D01*
X10953515Y-13328936D02*
X10963039Y-13338460D01*
X10963039Y-13338460D02*
X10953515Y-13347984D01*
X10953515Y-13347984D02*
X10943991Y-13338460D01*
X10943991Y-13338460D02*
X10953515Y-13328936D01*
X10953515Y-13328936D02*
X10953515Y-13347984D01*
X11086848Y-13147984D02*
X11105896Y-13147984D01*
X11105896Y-13147984D02*
X11124944Y-13157508D01*
X11124944Y-13157508D02*
X11134467Y-13167031D01*
X11134467Y-13167031D02*
X11143991Y-13186079D01*
X11143991Y-13186079D02*
X11153515Y-13224174D01*
X11153515Y-13224174D02*
X11153515Y-13271793D01*
X11153515Y-13271793D02*
X11143991Y-13309888D01*
X11143991Y-13309888D02*
X11134467Y-13328936D01*
X11134467Y-13328936D02*
X11124944Y-13338460D01*
X11124944Y-13338460D02*
X11105896Y-13347984D01*
X11105896Y-13347984D02*
X11086848Y-13347984D01*
X11086848Y-13347984D02*
X11067801Y-13338460D01*
X11067801Y-13338460D02*
X11058277Y-13328936D01*
X11058277Y-13328936D02*
X11048753Y-13309888D01*
X11048753Y-13309888D02*
X11039229Y-13271793D01*
X11039229Y-13271793D02*
X11039229Y-13224174D01*
X11039229Y-13224174D02*
X11048753Y-13186079D01*
X11048753Y-13186079D02*
X11058277Y-13167031D01*
X11058277Y-13167031D02*
X11067801Y-13157508D01*
X11067801Y-13157508D02*
X11086848Y-13147984D01*
X11229705Y-13167031D02*
X11239229Y-13157508D01*
X11239229Y-13157508D02*
X11258277Y-13147984D01*
X11258277Y-13147984D02*
X11305896Y-13147984D01*
X11305896Y-13147984D02*
X11324944Y-13157508D01*
X11324944Y-13157508D02*
X11334467Y-13167031D01*
X11334467Y-13167031D02*
X11343991Y-13186079D01*
X11343991Y-13186079D02*
X11343991Y-13205127D01*
X11343991Y-13205127D02*
X11334467Y-13233698D01*
X11334467Y-13233698D02*
X11220182Y-13347984D01*
X11220182Y-13347984D02*
X11343991Y-13347984D01*
X11410658Y-13147984D02*
X11534467Y-13147984D01*
X11534467Y-13147984D02*
X11467801Y-13224174D01*
X11467801Y-13224174D02*
X11496372Y-13224174D01*
X11496372Y-13224174D02*
X11515420Y-13233698D01*
X11515420Y-13233698D02*
X11524944Y-13243222D01*
X11524944Y-13243222D02*
X11534467Y-13262269D01*
X11534467Y-13262269D02*
X11534467Y-13309888D01*
X11534467Y-13309888D02*
X11524944Y-13328936D01*
X11524944Y-13328936D02*
X11515420Y-13338460D01*
X11515420Y-13338460D02*
X11496372Y-13347984D01*
X11496372Y-13347984D02*
X11439229Y-13347984D01*
X11439229Y-13347984D02*
X11420182Y-13338460D01*
X11420182Y-13338460D02*
X11410658Y-13328936D01*
X11705896Y-13147984D02*
X11667801Y-13147984D01*
X11667801Y-13147984D02*
X11648753Y-13157508D01*
X11648753Y-13157508D02*
X11639229Y-13167031D01*
X11639229Y-13167031D02*
X11620182Y-13195603D01*
X11620182Y-13195603D02*
X11610658Y-13233698D01*
X11610658Y-13233698D02*
X11610658Y-13309888D01*
X11610658Y-13309888D02*
X11620182Y-13328936D01*
X11620182Y-13328936D02*
X11629705Y-13338460D01*
X11629705Y-13338460D02*
X11648753Y-13347984D01*
X11648753Y-13347984D02*
X11686848Y-13347984D01*
X11686848Y-13347984D02*
X11705896Y-13338460D01*
X11705896Y-13338460D02*
X11715420Y-13328936D01*
X11715420Y-13328936D02*
X11724944Y-13309888D01*
X11724944Y-13309888D02*
X11724944Y-13262269D01*
X11724944Y-13262269D02*
X11715420Y-13243222D01*
X11715420Y-13243222D02*
X11705896Y-13233698D01*
X11705896Y-13233698D02*
X11686848Y-13224174D01*
X11686848Y-13224174D02*
X11648753Y-13224174D01*
X11648753Y-13224174D02*
X11629705Y-13233698D01*
X11629705Y-13233698D02*
X11620182Y-13243222D01*
X11620182Y-13243222D02*
X11610658Y-13262269D01*
X11801134Y-13147984D02*
X11801134Y-13186079D01*
X11877325Y-13147984D02*
X11877325Y-13186079D01*
X12172563Y-13424174D02*
X12163039Y-13414650D01*
X12163039Y-13414650D02*
X12143991Y-13386079D01*
X12143991Y-13386079D02*
X12134467Y-13367031D01*
X12134467Y-13367031D02*
X12124944Y-13338460D01*
X12124944Y-13338460D02*
X12115420Y-13290841D01*
X12115420Y-13290841D02*
X12115420Y-13252746D01*
X12115420Y-13252746D02*
X12124944Y-13205127D01*
X12124944Y-13205127D02*
X12134467Y-13176555D01*
X12134467Y-13176555D02*
X12143991Y-13157508D01*
X12143991Y-13157508D02*
X12163039Y-13128936D01*
X12163039Y-13128936D02*
X12172563Y-13119412D01*
X12334467Y-13147984D02*
X12296372Y-13147984D01*
X12296372Y-13147984D02*
X12277325Y-13157508D01*
X12277325Y-13157508D02*
X12267801Y-13167031D01*
X12267801Y-13167031D02*
X12248753Y-13195603D01*
X12248753Y-13195603D02*
X12239229Y-13233698D01*
X12239229Y-13233698D02*
X12239229Y-13309888D01*
X12239229Y-13309888D02*
X12248753Y-13328936D01*
X12248753Y-13328936D02*
X12258277Y-13338460D01*
X12258277Y-13338460D02*
X12277325Y-13347984D01*
X12277325Y-13347984D02*
X12315420Y-13347984D01*
X12315420Y-13347984D02*
X12334467Y-13338460D01*
X12334467Y-13338460D02*
X12343991Y-13328936D01*
X12343991Y-13328936D02*
X12353515Y-13309888D01*
X12353515Y-13309888D02*
X12353515Y-13262269D01*
X12353515Y-13262269D02*
X12343991Y-13243222D01*
X12343991Y-13243222D02*
X12334467Y-13233698D01*
X12334467Y-13233698D02*
X12315420Y-13224174D01*
X12315420Y-13224174D02*
X12277325Y-13224174D01*
X12277325Y-13224174D02*
X12258277Y-13233698D01*
X12258277Y-13233698D02*
X12248753Y-13243222D01*
X12248753Y-13243222D02*
X12239229Y-13262269D01*
X12591610Y-13347984D02*
X12591610Y-13147984D01*
X12677325Y-13347984D02*
X12677325Y-13243222D01*
X12677325Y-13243222D02*
X12667801Y-13224174D01*
X12667801Y-13224174D02*
X12648753Y-13214650D01*
X12648753Y-13214650D02*
X12620182Y-13214650D01*
X12620182Y-13214650D02*
X12601134Y-13224174D01*
X12601134Y-13224174D02*
X12591610Y-13233698D01*
X12801134Y-13347984D02*
X12782087Y-13338460D01*
X12782087Y-13338460D02*
X12772563Y-13328936D01*
X12772563Y-13328936D02*
X12763039Y-13309888D01*
X12763039Y-13309888D02*
X12763039Y-13252746D01*
X12763039Y-13252746D02*
X12772563Y-13233698D01*
X12772563Y-13233698D02*
X12782087Y-13224174D01*
X12782087Y-13224174D02*
X12801134Y-13214650D01*
X12801134Y-13214650D02*
X12829706Y-13214650D01*
X12829706Y-13214650D02*
X12848753Y-13224174D01*
X12848753Y-13224174D02*
X12858277Y-13233698D01*
X12858277Y-13233698D02*
X12867801Y-13252746D01*
X12867801Y-13252746D02*
X12867801Y-13309888D01*
X12867801Y-13309888D02*
X12858277Y-13328936D01*
X12858277Y-13328936D02*
X12848753Y-13338460D01*
X12848753Y-13338460D02*
X12829706Y-13347984D01*
X12829706Y-13347984D02*
X12801134Y-13347984D01*
X12982087Y-13347984D02*
X12963039Y-13338460D01*
X12963039Y-13338460D02*
X12953515Y-13319412D01*
X12953515Y-13319412D02*
X12953515Y-13147984D01*
X13134468Y-13338460D02*
X13115420Y-13347984D01*
X13115420Y-13347984D02*
X13077325Y-13347984D01*
X13077325Y-13347984D02*
X13058277Y-13338460D01*
X13058277Y-13338460D02*
X13048753Y-13319412D01*
X13048753Y-13319412D02*
X13048753Y-13243222D01*
X13048753Y-13243222D02*
X13058277Y-13224174D01*
X13058277Y-13224174D02*
X13077325Y-13214650D01*
X13077325Y-13214650D02*
X13115420Y-13214650D01*
X13115420Y-13214650D02*
X13134468Y-13224174D01*
X13134468Y-13224174D02*
X13143991Y-13243222D01*
X13143991Y-13243222D02*
X13143991Y-13262269D01*
X13143991Y-13262269D02*
X13048753Y-13281317D01*
X13220182Y-13338460D02*
X13239229Y-13347984D01*
X13239229Y-13347984D02*
X13277325Y-13347984D01*
X13277325Y-13347984D02*
X13296372Y-13338460D01*
X13296372Y-13338460D02*
X13305896Y-13319412D01*
X13305896Y-13319412D02*
X13305896Y-13309888D01*
X13305896Y-13309888D02*
X13296372Y-13290841D01*
X13296372Y-13290841D02*
X13277325Y-13281317D01*
X13277325Y-13281317D02*
X13248753Y-13281317D01*
X13248753Y-13281317D02*
X13229706Y-13271793D01*
X13229706Y-13271793D02*
X13220182Y-13252746D01*
X13220182Y-13252746D02*
X13220182Y-13243222D01*
X13220182Y-13243222D02*
X13229706Y-13224174D01*
X13229706Y-13224174D02*
X13248753Y-13214650D01*
X13248753Y-13214650D02*
X13277325Y-13214650D01*
X13277325Y-13214650D02*
X13296372Y-13224174D01*
X13372563Y-13424174D02*
X13382087Y-13414650D01*
X13382087Y-13414650D02*
X13401134Y-13386079D01*
X13401134Y-13386079D02*
X13410658Y-13367031D01*
X13410658Y-13367031D02*
X13420182Y-13338460D01*
X13420182Y-13338460D02*
X13429706Y-13290841D01*
X13429706Y-13290841D02*
X13429706Y-13252746D01*
X13429706Y-13252746D02*
X13420182Y-13205127D01*
X13420182Y-13205127D02*
X13410658Y-13176555D01*
X13410658Y-13176555D02*
X13401134Y-13157508D01*
X13401134Y-13157508D02*
X13382087Y-13128936D01*
X13382087Y-13128936D02*
X13372563Y-13119412D01*
D12*
X8547500Y-13470500D02*
X8547500Y-13570500D01*
X8497500Y-13520500D02*
X8597500Y-13520500D01*
D11*
X8963039Y-13611984D02*
X8848753Y-13611984D01*
X8905896Y-13611984D02*
X8905896Y-13411984D01*
X8905896Y-13411984D02*
X8886848Y-13440555D01*
X8886848Y-13440555D02*
X8867801Y-13459603D01*
X8867801Y-13459603D02*
X8848753Y-13469127D01*
X9048753Y-13592936D02*
X9058277Y-13602460D01*
X9058277Y-13602460D02*
X9048753Y-13611984D01*
X9048753Y-13611984D02*
X9039229Y-13602460D01*
X9039229Y-13602460D02*
X9048753Y-13592936D01*
X9048753Y-13592936D02*
X9048753Y-13611984D01*
X9182086Y-13411984D02*
X9201134Y-13411984D01*
X9201134Y-13411984D02*
X9220182Y-13421508D01*
X9220182Y-13421508D02*
X9229705Y-13431031D01*
X9229705Y-13431031D02*
X9239229Y-13450079D01*
X9239229Y-13450079D02*
X9248753Y-13488174D01*
X9248753Y-13488174D02*
X9248753Y-13535793D01*
X9248753Y-13535793D02*
X9239229Y-13573888D01*
X9239229Y-13573888D02*
X9229705Y-13592936D01*
X9229705Y-13592936D02*
X9220182Y-13602460D01*
X9220182Y-13602460D02*
X9201134Y-13611984D01*
X9201134Y-13611984D02*
X9182086Y-13611984D01*
X9182086Y-13611984D02*
X9163039Y-13602460D01*
X9163039Y-13602460D02*
X9153515Y-13592936D01*
X9153515Y-13592936D02*
X9143991Y-13573888D01*
X9143991Y-13573888D02*
X9134467Y-13535793D01*
X9134467Y-13535793D02*
X9134467Y-13488174D01*
X9134467Y-13488174D02*
X9143991Y-13450079D01*
X9143991Y-13450079D02*
X9153515Y-13431031D01*
X9153515Y-13431031D02*
X9163039Y-13421508D01*
X9163039Y-13421508D02*
X9182086Y-13411984D01*
X9372562Y-13411984D02*
X9391610Y-13411984D01*
X9391610Y-13411984D02*
X9410658Y-13421508D01*
X9410658Y-13421508D02*
X9420182Y-13431031D01*
X9420182Y-13431031D02*
X9429705Y-13450079D01*
X9429705Y-13450079D02*
X9439229Y-13488174D01*
X9439229Y-13488174D02*
X9439229Y-13535793D01*
X9439229Y-13535793D02*
X9429705Y-13573888D01*
X9429705Y-13573888D02*
X9420182Y-13592936D01*
X9420182Y-13592936D02*
X9410658Y-13602460D01*
X9410658Y-13602460D02*
X9391610Y-13611984D01*
X9391610Y-13611984D02*
X9372562Y-13611984D01*
X9372562Y-13611984D02*
X9353515Y-13602460D01*
X9353515Y-13602460D02*
X9343991Y-13592936D01*
X9343991Y-13592936D02*
X9334467Y-13573888D01*
X9334467Y-13573888D02*
X9324943Y-13535793D01*
X9324943Y-13535793D02*
X9324943Y-13488174D01*
X9324943Y-13488174D02*
X9334467Y-13450079D01*
X9334467Y-13450079D02*
X9343991Y-13431031D01*
X9343991Y-13431031D02*
X9353515Y-13421508D01*
X9353515Y-13421508D02*
X9372562Y-13411984D01*
X9563039Y-13411984D02*
X9582086Y-13411984D01*
X9582086Y-13411984D02*
X9601134Y-13421508D01*
X9601134Y-13421508D02*
X9610658Y-13431031D01*
X9610658Y-13431031D02*
X9620182Y-13450079D01*
X9620182Y-13450079D02*
X9629705Y-13488174D01*
X9629705Y-13488174D02*
X9629705Y-13535793D01*
X9629705Y-13535793D02*
X9620182Y-13573888D01*
X9620182Y-13573888D02*
X9610658Y-13592936D01*
X9610658Y-13592936D02*
X9601134Y-13602460D01*
X9601134Y-13602460D02*
X9582086Y-13611984D01*
X9582086Y-13611984D02*
X9563039Y-13611984D01*
X9563039Y-13611984D02*
X9543991Y-13602460D01*
X9543991Y-13602460D02*
X9534467Y-13592936D01*
X9534467Y-13592936D02*
X9524943Y-13573888D01*
X9524943Y-13573888D02*
X9515420Y-13535793D01*
X9515420Y-13535793D02*
X9515420Y-13488174D01*
X9515420Y-13488174D02*
X9524943Y-13450079D01*
X9524943Y-13450079D02*
X9534467Y-13431031D01*
X9534467Y-13431031D02*
X9543991Y-13421508D01*
X9543991Y-13421508D02*
X9563039Y-13411984D01*
X9715420Y-13611984D02*
X9715420Y-13478650D01*
X9715420Y-13497698D02*
X9724943Y-13488174D01*
X9724943Y-13488174D02*
X9743991Y-13478650D01*
X9743991Y-13478650D02*
X9772563Y-13478650D01*
X9772563Y-13478650D02*
X9791610Y-13488174D01*
X9791610Y-13488174D02*
X9801134Y-13507222D01*
X9801134Y-13507222D02*
X9801134Y-13611984D01*
X9801134Y-13507222D02*
X9810658Y-13488174D01*
X9810658Y-13488174D02*
X9829705Y-13478650D01*
X9829705Y-13478650D02*
X9858277Y-13478650D01*
X9858277Y-13478650D02*
X9877324Y-13488174D01*
X9877324Y-13488174D02*
X9886848Y-13507222D01*
X9886848Y-13507222D02*
X9886848Y-13611984D01*
X9982086Y-13611984D02*
X9982086Y-13478650D01*
X9982086Y-13497698D02*
X9991610Y-13488174D01*
X9991610Y-13488174D02*
X10010658Y-13478650D01*
X10010658Y-13478650D02*
X10039229Y-13478650D01*
X10039229Y-13478650D02*
X10058277Y-13488174D01*
X10058277Y-13488174D02*
X10067801Y-13507222D01*
X10067801Y-13507222D02*
X10067801Y-13611984D01*
X10067801Y-13507222D02*
X10077324Y-13488174D01*
X10077324Y-13488174D02*
X10096372Y-13478650D01*
X10096372Y-13478650D02*
X10124943Y-13478650D01*
X10124943Y-13478650D02*
X10143991Y-13488174D01*
X10143991Y-13488174D02*
X10153515Y-13507222D01*
X10153515Y-13507222D02*
X10153515Y-13611984D01*
X10543991Y-13402460D02*
X10372563Y-13659603D01*
X10801134Y-13411984D02*
X10820182Y-13411984D01*
X10820182Y-13411984D02*
X10839229Y-13421508D01*
X10839229Y-13421508D02*
X10848753Y-13431031D01*
X10848753Y-13431031D02*
X10858277Y-13450079D01*
X10858277Y-13450079D02*
X10867801Y-13488174D01*
X10867801Y-13488174D02*
X10867801Y-13535793D01*
X10867801Y-13535793D02*
X10858277Y-13573888D01*
X10858277Y-13573888D02*
X10848753Y-13592936D01*
X10848753Y-13592936D02*
X10839229Y-13602460D01*
X10839229Y-13602460D02*
X10820182Y-13611984D01*
X10820182Y-13611984D02*
X10801134Y-13611984D01*
X10801134Y-13611984D02*
X10782086Y-13602460D01*
X10782086Y-13602460D02*
X10772563Y-13592936D01*
X10772563Y-13592936D02*
X10763039Y-13573888D01*
X10763039Y-13573888D02*
X10753515Y-13535793D01*
X10753515Y-13535793D02*
X10753515Y-13488174D01*
X10753515Y-13488174D02*
X10763039Y-13450079D01*
X10763039Y-13450079D02*
X10772563Y-13431031D01*
X10772563Y-13431031D02*
X10782086Y-13421508D01*
X10782086Y-13421508D02*
X10801134Y-13411984D01*
X10953515Y-13592936D02*
X10963039Y-13602460D01*
X10963039Y-13602460D02*
X10953515Y-13611984D01*
X10953515Y-13611984D02*
X10943991Y-13602460D01*
X10943991Y-13602460D02*
X10953515Y-13592936D01*
X10953515Y-13592936D02*
X10953515Y-13611984D01*
X11086848Y-13411984D02*
X11105896Y-13411984D01*
X11105896Y-13411984D02*
X11124944Y-13421508D01*
X11124944Y-13421508D02*
X11134467Y-13431031D01*
X11134467Y-13431031D02*
X11143991Y-13450079D01*
X11143991Y-13450079D02*
X11153515Y-13488174D01*
X11153515Y-13488174D02*
X11153515Y-13535793D01*
X11153515Y-13535793D02*
X11143991Y-13573888D01*
X11143991Y-13573888D02*
X11134467Y-13592936D01*
X11134467Y-13592936D02*
X11124944Y-13602460D01*
X11124944Y-13602460D02*
X11105896Y-13611984D01*
X11105896Y-13611984D02*
X11086848Y-13611984D01*
X11086848Y-13611984D02*
X11067801Y-13602460D01*
X11067801Y-13602460D02*
X11058277Y-13592936D01*
X11058277Y-13592936D02*
X11048753Y-13573888D01*
X11048753Y-13573888D02*
X11039229Y-13535793D01*
X11039229Y-13535793D02*
X11039229Y-13488174D01*
X11039229Y-13488174D02*
X11048753Y-13450079D01*
X11048753Y-13450079D02*
X11058277Y-13431031D01*
X11058277Y-13431031D02*
X11067801Y-13421508D01*
X11067801Y-13421508D02*
X11086848Y-13411984D01*
X11220182Y-13411984D02*
X11343991Y-13411984D01*
X11343991Y-13411984D02*
X11277324Y-13488174D01*
X11277324Y-13488174D02*
X11305896Y-13488174D01*
X11305896Y-13488174D02*
X11324944Y-13497698D01*
X11324944Y-13497698D02*
X11334467Y-13507222D01*
X11334467Y-13507222D02*
X11343991Y-13526269D01*
X11343991Y-13526269D02*
X11343991Y-13573888D01*
X11343991Y-13573888D02*
X11334467Y-13592936D01*
X11334467Y-13592936D02*
X11324944Y-13602460D01*
X11324944Y-13602460D02*
X11305896Y-13611984D01*
X11305896Y-13611984D02*
X11248753Y-13611984D01*
X11248753Y-13611984D02*
X11229705Y-13602460D01*
X11229705Y-13602460D02*
X11220182Y-13592936D01*
X11439229Y-13611984D02*
X11477324Y-13611984D01*
X11477324Y-13611984D02*
X11496372Y-13602460D01*
X11496372Y-13602460D02*
X11505896Y-13592936D01*
X11505896Y-13592936D02*
X11524944Y-13564365D01*
X11524944Y-13564365D02*
X11534467Y-13526269D01*
X11534467Y-13526269D02*
X11534467Y-13450079D01*
X11534467Y-13450079D02*
X11524944Y-13431031D01*
X11524944Y-13431031D02*
X11515420Y-13421508D01*
X11515420Y-13421508D02*
X11496372Y-13411984D01*
X11496372Y-13411984D02*
X11458277Y-13411984D01*
X11458277Y-13411984D02*
X11439229Y-13421508D01*
X11439229Y-13421508D02*
X11429705Y-13431031D01*
X11429705Y-13431031D02*
X11420182Y-13450079D01*
X11420182Y-13450079D02*
X11420182Y-13497698D01*
X11420182Y-13497698D02*
X11429705Y-13516746D01*
X11429705Y-13516746D02*
X11439229Y-13526269D01*
X11439229Y-13526269D02*
X11458277Y-13535793D01*
X11458277Y-13535793D02*
X11496372Y-13535793D01*
X11496372Y-13535793D02*
X11515420Y-13526269D01*
X11515420Y-13526269D02*
X11524944Y-13516746D01*
X11524944Y-13516746D02*
X11534467Y-13497698D01*
X11705896Y-13478650D02*
X11705896Y-13611984D01*
X11658277Y-13402460D02*
X11610658Y-13545317D01*
X11610658Y-13545317D02*
X11734467Y-13545317D01*
X11801134Y-13411984D02*
X11801134Y-13450079D01*
X11877325Y-13411984D02*
X11877325Y-13450079D01*
X12172563Y-13688174D02*
X12163039Y-13678650D01*
X12163039Y-13678650D02*
X12143991Y-13650079D01*
X12143991Y-13650079D02*
X12134467Y-13631031D01*
X12134467Y-13631031D02*
X12124944Y-13602460D01*
X12124944Y-13602460D02*
X12115420Y-13554841D01*
X12115420Y-13554841D02*
X12115420Y-13516746D01*
X12115420Y-13516746D02*
X12124944Y-13469127D01*
X12124944Y-13469127D02*
X12134467Y-13440555D01*
X12134467Y-13440555D02*
X12143991Y-13421508D01*
X12143991Y-13421508D02*
X12163039Y-13392936D01*
X12163039Y-13392936D02*
X12172563Y-13383412D01*
X12239229Y-13431031D02*
X12248753Y-13421508D01*
X12248753Y-13421508D02*
X12267801Y-13411984D01*
X12267801Y-13411984D02*
X12315420Y-13411984D01*
X12315420Y-13411984D02*
X12334467Y-13421508D01*
X12334467Y-13421508D02*
X12343991Y-13431031D01*
X12343991Y-13431031D02*
X12353515Y-13450079D01*
X12353515Y-13450079D02*
X12353515Y-13469127D01*
X12353515Y-13469127D02*
X12343991Y-13497698D01*
X12343991Y-13497698D02*
X12229706Y-13611984D01*
X12229706Y-13611984D02*
X12353515Y-13611984D01*
X12420182Y-13411984D02*
X12553515Y-13411984D01*
X12553515Y-13411984D02*
X12467801Y-13611984D01*
X12782087Y-13611984D02*
X12782087Y-13411984D01*
X12867801Y-13611984D02*
X12867801Y-13507222D01*
X12867801Y-13507222D02*
X12858277Y-13488174D01*
X12858277Y-13488174D02*
X12839229Y-13478650D01*
X12839229Y-13478650D02*
X12810658Y-13478650D01*
X12810658Y-13478650D02*
X12791610Y-13488174D01*
X12791610Y-13488174D02*
X12782087Y-13497698D01*
X12991610Y-13611984D02*
X12972563Y-13602460D01*
X12972563Y-13602460D02*
X12963039Y-13592936D01*
X12963039Y-13592936D02*
X12953515Y-13573888D01*
X12953515Y-13573888D02*
X12953515Y-13516746D01*
X12953515Y-13516746D02*
X12963039Y-13497698D01*
X12963039Y-13497698D02*
X12972563Y-13488174D01*
X12972563Y-13488174D02*
X12991610Y-13478650D01*
X12991610Y-13478650D02*
X13020182Y-13478650D01*
X13020182Y-13478650D02*
X13039229Y-13488174D01*
X13039229Y-13488174D02*
X13048753Y-13497698D01*
X13048753Y-13497698D02*
X13058277Y-13516746D01*
X13058277Y-13516746D02*
X13058277Y-13573888D01*
X13058277Y-13573888D02*
X13048753Y-13592936D01*
X13048753Y-13592936D02*
X13039229Y-13602460D01*
X13039229Y-13602460D02*
X13020182Y-13611984D01*
X13020182Y-13611984D02*
X12991610Y-13611984D01*
X13172563Y-13611984D02*
X13153515Y-13602460D01*
X13153515Y-13602460D02*
X13143991Y-13583412D01*
X13143991Y-13583412D02*
X13143991Y-13411984D01*
X13324944Y-13602460D02*
X13305896Y-13611984D01*
X13305896Y-13611984D02*
X13267801Y-13611984D01*
X13267801Y-13611984D02*
X13248753Y-13602460D01*
X13248753Y-13602460D02*
X13239229Y-13583412D01*
X13239229Y-13583412D02*
X13239229Y-13507222D01*
X13239229Y-13507222D02*
X13248753Y-13488174D01*
X13248753Y-13488174D02*
X13267801Y-13478650D01*
X13267801Y-13478650D02*
X13305896Y-13478650D01*
X13305896Y-13478650D02*
X13324944Y-13488174D01*
X13324944Y-13488174D02*
X13334468Y-13507222D01*
X13334468Y-13507222D02*
X13334468Y-13526269D01*
X13334468Y-13526269D02*
X13239229Y-13545317D01*
X13410658Y-13602460D02*
X13429706Y-13611984D01*
X13429706Y-13611984D02*
X13467801Y-13611984D01*
X13467801Y-13611984D02*
X13486849Y-13602460D01*
X13486849Y-13602460D02*
X13496372Y-13583412D01*
X13496372Y-13583412D02*
X13496372Y-13573888D01*
X13496372Y-13573888D02*
X13486849Y-13554841D01*
X13486849Y-13554841D02*
X13467801Y-13545317D01*
X13467801Y-13545317D02*
X13439229Y-13545317D01*
X13439229Y-13545317D02*
X13420182Y-13535793D01*
X13420182Y-13535793D02*
X13410658Y-13516746D01*
X13410658Y-13516746D02*
X13410658Y-13507222D01*
X13410658Y-13507222D02*
X13420182Y-13488174D01*
X13420182Y-13488174D02*
X13439229Y-13478650D01*
X13439229Y-13478650D02*
X13467801Y-13478650D01*
X13467801Y-13478650D02*
X13486849Y-13488174D01*
X13734468Y-13535793D02*
X13886849Y-13535793D01*
X13810658Y-13611984D02*
X13810658Y-13459603D01*
X14229706Y-13411984D02*
X14134468Y-13411984D01*
X14134468Y-13411984D02*
X14124944Y-13507222D01*
X14124944Y-13507222D02*
X14134468Y-13497698D01*
X14134468Y-13497698D02*
X14153515Y-13488174D01*
X14153515Y-13488174D02*
X14201134Y-13488174D01*
X14201134Y-13488174D02*
X14220182Y-13497698D01*
X14220182Y-13497698D02*
X14229706Y-13507222D01*
X14229706Y-13507222D02*
X14239230Y-13526269D01*
X14239230Y-13526269D02*
X14239230Y-13573888D01*
X14239230Y-13573888D02*
X14229706Y-13592936D01*
X14229706Y-13592936D02*
X14220182Y-13602460D01*
X14220182Y-13602460D02*
X14201134Y-13611984D01*
X14201134Y-13611984D02*
X14153515Y-13611984D01*
X14153515Y-13611984D02*
X14134468Y-13602460D01*
X14134468Y-13602460D02*
X14124944Y-13592936D01*
X14467801Y-13602460D02*
X14486849Y-13611984D01*
X14486849Y-13611984D02*
X14524944Y-13611984D01*
X14524944Y-13611984D02*
X14543992Y-13602460D01*
X14543992Y-13602460D02*
X14553515Y-13583412D01*
X14553515Y-13583412D02*
X14553515Y-13573888D01*
X14553515Y-13573888D02*
X14543992Y-13554841D01*
X14543992Y-13554841D02*
X14524944Y-13545317D01*
X14524944Y-13545317D02*
X14496372Y-13545317D01*
X14496372Y-13545317D02*
X14477325Y-13535793D01*
X14477325Y-13535793D02*
X14467801Y-13516746D01*
X14467801Y-13516746D02*
X14467801Y-13507222D01*
X14467801Y-13507222D02*
X14477325Y-13488174D01*
X14477325Y-13488174D02*
X14496372Y-13478650D01*
X14496372Y-13478650D02*
X14524944Y-13478650D01*
X14524944Y-13478650D02*
X14543992Y-13488174D01*
X14667801Y-13611984D02*
X14648753Y-13602460D01*
X14648753Y-13602460D02*
X14639230Y-13583412D01*
X14639230Y-13583412D02*
X14639230Y-13411984D01*
X14772563Y-13611984D02*
X14753515Y-13602460D01*
X14753515Y-13602460D02*
X14743992Y-13592936D01*
X14743992Y-13592936D02*
X14734468Y-13573888D01*
X14734468Y-13573888D02*
X14734468Y-13516746D01*
X14734468Y-13516746D02*
X14743992Y-13497698D01*
X14743992Y-13497698D02*
X14753515Y-13488174D01*
X14753515Y-13488174D02*
X14772563Y-13478650D01*
X14772563Y-13478650D02*
X14801134Y-13478650D01*
X14801134Y-13478650D02*
X14820182Y-13488174D01*
X14820182Y-13488174D02*
X14829706Y-13497698D01*
X14829706Y-13497698D02*
X14839230Y-13516746D01*
X14839230Y-13516746D02*
X14839230Y-13573888D01*
X14839230Y-13573888D02*
X14829706Y-13592936D01*
X14829706Y-13592936D02*
X14820182Y-13602460D01*
X14820182Y-13602460D02*
X14801134Y-13611984D01*
X14801134Y-13611984D02*
X14772563Y-13611984D01*
X14896373Y-13478650D02*
X14972563Y-13478650D01*
X14924944Y-13411984D02*
X14924944Y-13583412D01*
X14924944Y-13583412D02*
X14934468Y-13602460D01*
X14934468Y-13602460D02*
X14953515Y-13611984D01*
X14953515Y-13611984D02*
X14972563Y-13611984D01*
X15029706Y-13602460D02*
X15048753Y-13611984D01*
X15048753Y-13611984D02*
X15086849Y-13611984D01*
X15086849Y-13611984D02*
X15105896Y-13602460D01*
X15105896Y-13602460D02*
X15115420Y-13583412D01*
X15115420Y-13583412D02*
X15115420Y-13573888D01*
X15115420Y-13573888D02*
X15105896Y-13554841D01*
X15105896Y-13554841D02*
X15086849Y-13545317D01*
X15086849Y-13545317D02*
X15058277Y-13545317D01*
X15058277Y-13545317D02*
X15039230Y-13535793D01*
X15039230Y-13535793D02*
X15029706Y-13516746D01*
X15029706Y-13516746D02*
X15029706Y-13507222D01*
X15029706Y-13507222D02*
X15039230Y-13488174D01*
X15039230Y-13488174D02*
X15058277Y-13478650D01*
X15058277Y-13478650D02*
X15086849Y-13478650D01*
X15086849Y-13478650D02*
X15105896Y-13488174D01*
X15182087Y-13688174D02*
X15191611Y-13678650D01*
X15191611Y-13678650D02*
X15210658Y-13650079D01*
X15210658Y-13650079D02*
X15220182Y-13631031D01*
X15220182Y-13631031D02*
X15229706Y-13602460D01*
X15229706Y-13602460D02*
X15239230Y-13554841D01*
X15239230Y-13554841D02*
X15239230Y-13516746D01*
X15239230Y-13516746D02*
X15229706Y-13469127D01*
X15229706Y-13469127D02*
X15220182Y-13440555D01*
X15220182Y-13440555D02*
X15210658Y-13421508D01*
X15210658Y-13421508D02*
X15191611Y-13392936D01*
X15191611Y-13392936D02*
X15182087Y-13383412D01*
D13*
X8580073Y-13826573D02*
X8580073Y-13742427D01*
X8495927Y-13742427D01*
X8495927Y-13826573D01*
X8580073Y-13826573D01*
D11*
X8963039Y-13875984D02*
X8848753Y-13875984D01*
X8905896Y-13875984D02*
X8905896Y-13675984D01*
X8905896Y-13675984D02*
X8886848Y-13704555D01*
X8886848Y-13704555D02*
X8867801Y-13723603D01*
X8867801Y-13723603D02*
X8848753Y-13733127D01*
X9048753Y-13856936D02*
X9058277Y-13866460D01*
X9058277Y-13866460D02*
X9048753Y-13875984D01*
X9048753Y-13875984D02*
X9039229Y-13866460D01*
X9039229Y-13866460D02*
X9048753Y-13856936D01*
X9048753Y-13856936D02*
X9048753Y-13875984D01*
X9248753Y-13875984D02*
X9134467Y-13875984D01*
X9191610Y-13875984D02*
X9191610Y-13675984D01*
X9191610Y-13675984D02*
X9172562Y-13704555D01*
X9172562Y-13704555D02*
X9153515Y-13723603D01*
X9153515Y-13723603D02*
X9134467Y-13733127D01*
X9343991Y-13875984D02*
X9382086Y-13875984D01*
X9382086Y-13875984D02*
X9401134Y-13866460D01*
X9401134Y-13866460D02*
X9410658Y-13856936D01*
X9410658Y-13856936D02*
X9429705Y-13828365D01*
X9429705Y-13828365D02*
X9439229Y-13790269D01*
X9439229Y-13790269D02*
X9439229Y-13714079D01*
X9439229Y-13714079D02*
X9429705Y-13695031D01*
X9429705Y-13695031D02*
X9420182Y-13685508D01*
X9420182Y-13685508D02*
X9401134Y-13675984D01*
X9401134Y-13675984D02*
X9363039Y-13675984D01*
X9363039Y-13675984D02*
X9343991Y-13685508D01*
X9343991Y-13685508D02*
X9334467Y-13695031D01*
X9334467Y-13695031D02*
X9324943Y-13714079D01*
X9324943Y-13714079D02*
X9324943Y-13761698D01*
X9324943Y-13761698D02*
X9334467Y-13780746D01*
X9334467Y-13780746D02*
X9343991Y-13790269D01*
X9343991Y-13790269D02*
X9363039Y-13799793D01*
X9363039Y-13799793D02*
X9401134Y-13799793D01*
X9401134Y-13799793D02*
X9420182Y-13790269D01*
X9420182Y-13790269D02*
X9429705Y-13780746D01*
X9429705Y-13780746D02*
X9439229Y-13761698D01*
X9563039Y-13675984D02*
X9582086Y-13675984D01*
X9582086Y-13675984D02*
X9601134Y-13685508D01*
X9601134Y-13685508D02*
X9610658Y-13695031D01*
X9610658Y-13695031D02*
X9620182Y-13714079D01*
X9620182Y-13714079D02*
X9629705Y-13752174D01*
X9629705Y-13752174D02*
X9629705Y-13799793D01*
X9629705Y-13799793D02*
X9620182Y-13837888D01*
X9620182Y-13837888D02*
X9610658Y-13856936D01*
X9610658Y-13856936D02*
X9601134Y-13866460D01*
X9601134Y-13866460D02*
X9582086Y-13875984D01*
X9582086Y-13875984D02*
X9563039Y-13875984D01*
X9563039Y-13875984D02*
X9543991Y-13866460D01*
X9543991Y-13866460D02*
X9534467Y-13856936D01*
X9534467Y-13856936D02*
X9524943Y-13837888D01*
X9524943Y-13837888D02*
X9515420Y-13799793D01*
X9515420Y-13799793D02*
X9515420Y-13752174D01*
X9515420Y-13752174D02*
X9524943Y-13714079D01*
X9524943Y-13714079D02*
X9534467Y-13695031D01*
X9534467Y-13695031D02*
X9543991Y-13685508D01*
X9543991Y-13685508D02*
X9563039Y-13675984D01*
X9715420Y-13875984D02*
X9715420Y-13742650D01*
X9715420Y-13761698D02*
X9724943Y-13752174D01*
X9724943Y-13752174D02*
X9743991Y-13742650D01*
X9743991Y-13742650D02*
X9772563Y-13742650D01*
X9772563Y-13742650D02*
X9791610Y-13752174D01*
X9791610Y-13752174D02*
X9801134Y-13771222D01*
X9801134Y-13771222D02*
X9801134Y-13875984D01*
X9801134Y-13771222D02*
X9810658Y-13752174D01*
X9810658Y-13752174D02*
X9829705Y-13742650D01*
X9829705Y-13742650D02*
X9858277Y-13742650D01*
X9858277Y-13742650D02*
X9877324Y-13752174D01*
X9877324Y-13752174D02*
X9886848Y-13771222D01*
X9886848Y-13771222D02*
X9886848Y-13875984D01*
X9982086Y-13875984D02*
X9982086Y-13742650D01*
X9982086Y-13761698D02*
X9991610Y-13752174D01*
X9991610Y-13752174D02*
X10010658Y-13742650D01*
X10010658Y-13742650D02*
X10039229Y-13742650D01*
X10039229Y-13742650D02*
X10058277Y-13752174D01*
X10058277Y-13752174D02*
X10067801Y-13771222D01*
X10067801Y-13771222D02*
X10067801Y-13875984D01*
X10067801Y-13771222D02*
X10077324Y-13752174D01*
X10077324Y-13752174D02*
X10096372Y-13742650D01*
X10096372Y-13742650D02*
X10124943Y-13742650D01*
X10124943Y-13742650D02*
X10143991Y-13752174D01*
X10143991Y-13752174D02*
X10153515Y-13771222D01*
X10153515Y-13771222D02*
X10153515Y-13875984D01*
X10543991Y-13666460D02*
X10372563Y-13923603D01*
X10801134Y-13675984D02*
X10820182Y-13675984D01*
X10820182Y-13675984D02*
X10839229Y-13685508D01*
X10839229Y-13685508D02*
X10848753Y-13695031D01*
X10848753Y-13695031D02*
X10858277Y-13714079D01*
X10858277Y-13714079D02*
X10867801Y-13752174D01*
X10867801Y-13752174D02*
X10867801Y-13799793D01*
X10867801Y-13799793D02*
X10858277Y-13837888D01*
X10858277Y-13837888D02*
X10848753Y-13856936D01*
X10848753Y-13856936D02*
X10839229Y-13866460D01*
X10839229Y-13866460D02*
X10820182Y-13875984D01*
X10820182Y-13875984D02*
X10801134Y-13875984D01*
X10801134Y-13875984D02*
X10782086Y-13866460D01*
X10782086Y-13866460D02*
X10772563Y-13856936D01*
X10772563Y-13856936D02*
X10763039Y-13837888D01*
X10763039Y-13837888D02*
X10753515Y-13799793D01*
X10753515Y-13799793D02*
X10753515Y-13752174D01*
X10753515Y-13752174D02*
X10763039Y-13714079D01*
X10763039Y-13714079D02*
X10772563Y-13695031D01*
X10772563Y-13695031D02*
X10782086Y-13685508D01*
X10782086Y-13685508D02*
X10801134Y-13675984D01*
X10953515Y-13856936D02*
X10963039Y-13866460D01*
X10963039Y-13866460D02*
X10953515Y-13875984D01*
X10953515Y-13875984D02*
X10943991Y-13866460D01*
X10943991Y-13866460D02*
X10953515Y-13856936D01*
X10953515Y-13856936D02*
X10953515Y-13875984D01*
X11086848Y-13675984D02*
X11105896Y-13675984D01*
X11105896Y-13675984D02*
X11124944Y-13685508D01*
X11124944Y-13685508D02*
X11134467Y-13695031D01*
X11134467Y-13695031D02*
X11143991Y-13714079D01*
X11143991Y-13714079D02*
X11153515Y-13752174D01*
X11153515Y-13752174D02*
X11153515Y-13799793D01*
X11153515Y-13799793D02*
X11143991Y-13837888D01*
X11143991Y-13837888D02*
X11134467Y-13856936D01*
X11134467Y-13856936D02*
X11124944Y-13866460D01*
X11124944Y-13866460D02*
X11105896Y-13875984D01*
X11105896Y-13875984D02*
X11086848Y-13875984D01*
X11086848Y-13875984D02*
X11067801Y-13866460D01*
X11067801Y-13866460D02*
X11058277Y-13856936D01*
X11058277Y-13856936D02*
X11048753Y-13837888D01*
X11048753Y-13837888D02*
X11039229Y-13799793D01*
X11039229Y-13799793D02*
X11039229Y-13752174D01*
X11039229Y-13752174D02*
X11048753Y-13714079D01*
X11048753Y-13714079D02*
X11058277Y-13695031D01*
X11058277Y-13695031D02*
X11067801Y-13685508D01*
X11067801Y-13685508D02*
X11086848Y-13675984D01*
X11324944Y-13742650D02*
X11324944Y-13875984D01*
X11277324Y-13666460D02*
X11229705Y-13809317D01*
X11229705Y-13809317D02*
X11353515Y-13809317D01*
X11515420Y-13675984D02*
X11477324Y-13675984D01*
X11477324Y-13675984D02*
X11458277Y-13685508D01*
X11458277Y-13685508D02*
X11448753Y-13695031D01*
X11448753Y-13695031D02*
X11429705Y-13723603D01*
X11429705Y-13723603D02*
X11420182Y-13761698D01*
X11420182Y-13761698D02*
X11420182Y-13837888D01*
X11420182Y-13837888D02*
X11429705Y-13856936D01*
X11429705Y-13856936D02*
X11439229Y-13866460D01*
X11439229Y-13866460D02*
X11458277Y-13875984D01*
X11458277Y-13875984D02*
X11496372Y-13875984D01*
X11496372Y-13875984D02*
X11515420Y-13866460D01*
X11515420Y-13866460D02*
X11524944Y-13856936D01*
X11524944Y-13856936D02*
X11534467Y-13837888D01*
X11534467Y-13837888D02*
X11534467Y-13790269D01*
X11534467Y-13790269D02*
X11524944Y-13771222D01*
X11524944Y-13771222D02*
X11515420Y-13761698D01*
X11515420Y-13761698D02*
X11496372Y-13752174D01*
X11496372Y-13752174D02*
X11458277Y-13752174D01*
X11458277Y-13752174D02*
X11439229Y-13761698D01*
X11439229Y-13761698D02*
X11429705Y-13771222D01*
X11429705Y-13771222D02*
X11420182Y-13790269D01*
X11629705Y-13875984D02*
X11667801Y-13875984D01*
X11667801Y-13875984D02*
X11686848Y-13866460D01*
X11686848Y-13866460D02*
X11696372Y-13856936D01*
X11696372Y-13856936D02*
X11715420Y-13828365D01*
X11715420Y-13828365D02*
X11724944Y-13790269D01*
X11724944Y-13790269D02*
X11724944Y-13714079D01*
X11724944Y-13714079D02*
X11715420Y-13695031D01*
X11715420Y-13695031D02*
X11705896Y-13685508D01*
X11705896Y-13685508D02*
X11686848Y-13675984D01*
X11686848Y-13675984D02*
X11648753Y-13675984D01*
X11648753Y-13675984D02*
X11629705Y-13685508D01*
X11629705Y-13685508D02*
X11620182Y-13695031D01*
X11620182Y-13695031D02*
X11610658Y-13714079D01*
X11610658Y-13714079D02*
X11610658Y-13761698D01*
X11610658Y-13761698D02*
X11620182Y-13780746D01*
X11620182Y-13780746D02*
X11629705Y-13790269D01*
X11629705Y-13790269D02*
X11648753Y-13799793D01*
X11648753Y-13799793D02*
X11686848Y-13799793D01*
X11686848Y-13799793D02*
X11705896Y-13790269D01*
X11705896Y-13790269D02*
X11715420Y-13780746D01*
X11715420Y-13780746D02*
X11724944Y-13761698D01*
X11801134Y-13675984D02*
X11801134Y-13714079D01*
X11877325Y-13675984D02*
X11877325Y-13714079D01*
X12172563Y-13952174D02*
X12163039Y-13942650D01*
X12163039Y-13942650D02*
X12143991Y-13914079D01*
X12143991Y-13914079D02*
X12134467Y-13895031D01*
X12134467Y-13895031D02*
X12124944Y-13866460D01*
X12124944Y-13866460D02*
X12115420Y-13818841D01*
X12115420Y-13818841D02*
X12115420Y-13780746D01*
X12115420Y-13780746D02*
X12124944Y-13733127D01*
X12124944Y-13733127D02*
X12134467Y-13704555D01*
X12134467Y-13704555D02*
X12143991Y-13685508D01*
X12143991Y-13685508D02*
X12163039Y-13656936D01*
X12163039Y-13656936D02*
X12172563Y-13647412D01*
X12239229Y-13695031D02*
X12248753Y-13685508D01*
X12248753Y-13685508D02*
X12267801Y-13675984D01*
X12267801Y-13675984D02*
X12315420Y-13675984D01*
X12315420Y-13675984D02*
X12334467Y-13685508D01*
X12334467Y-13685508D02*
X12343991Y-13695031D01*
X12343991Y-13695031D02*
X12353515Y-13714079D01*
X12353515Y-13714079D02*
X12353515Y-13733127D01*
X12353515Y-13733127D02*
X12343991Y-13761698D01*
X12343991Y-13761698D02*
X12229706Y-13875984D01*
X12229706Y-13875984D02*
X12353515Y-13875984D01*
X12591610Y-13875984D02*
X12591610Y-13675984D01*
X12677325Y-13875984D02*
X12677325Y-13771222D01*
X12677325Y-13771222D02*
X12667801Y-13752174D01*
X12667801Y-13752174D02*
X12648753Y-13742650D01*
X12648753Y-13742650D02*
X12620182Y-13742650D01*
X12620182Y-13742650D02*
X12601134Y-13752174D01*
X12601134Y-13752174D02*
X12591610Y-13761698D01*
X12801134Y-13875984D02*
X12782087Y-13866460D01*
X12782087Y-13866460D02*
X12772563Y-13856936D01*
X12772563Y-13856936D02*
X12763039Y-13837888D01*
X12763039Y-13837888D02*
X12763039Y-13780746D01*
X12763039Y-13780746D02*
X12772563Y-13761698D01*
X12772563Y-13761698D02*
X12782087Y-13752174D01*
X12782087Y-13752174D02*
X12801134Y-13742650D01*
X12801134Y-13742650D02*
X12829706Y-13742650D01*
X12829706Y-13742650D02*
X12848753Y-13752174D01*
X12848753Y-13752174D02*
X12858277Y-13761698D01*
X12858277Y-13761698D02*
X12867801Y-13780746D01*
X12867801Y-13780746D02*
X12867801Y-13837888D01*
X12867801Y-13837888D02*
X12858277Y-13856936D01*
X12858277Y-13856936D02*
X12848753Y-13866460D01*
X12848753Y-13866460D02*
X12829706Y-13875984D01*
X12829706Y-13875984D02*
X12801134Y-13875984D01*
X12982087Y-13875984D02*
X12963039Y-13866460D01*
X12963039Y-13866460D02*
X12953515Y-13847412D01*
X12953515Y-13847412D02*
X12953515Y-13675984D01*
X13134468Y-13866460D02*
X13115420Y-13875984D01*
X13115420Y-13875984D02*
X13077325Y-13875984D01*
X13077325Y-13875984D02*
X13058277Y-13866460D01*
X13058277Y-13866460D02*
X13048753Y-13847412D01*
X13048753Y-13847412D02*
X13048753Y-13771222D01*
X13048753Y-13771222D02*
X13058277Y-13752174D01*
X13058277Y-13752174D02*
X13077325Y-13742650D01*
X13077325Y-13742650D02*
X13115420Y-13742650D01*
X13115420Y-13742650D02*
X13134468Y-13752174D01*
X13134468Y-13752174D02*
X13143991Y-13771222D01*
X13143991Y-13771222D02*
X13143991Y-13790269D01*
X13143991Y-13790269D02*
X13048753Y-13809317D01*
X13220182Y-13866460D02*
X13239229Y-13875984D01*
X13239229Y-13875984D02*
X13277325Y-13875984D01*
X13277325Y-13875984D02*
X13296372Y-13866460D01*
X13296372Y-13866460D02*
X13305896Y-13847412D01*
X13305896Y-13847412D02*
X13305896Y-13837888D01*
X13305896Y-13837888D02*
X13296372Y-13818841D01*
X13296372Y-13818841D02*
X13277325Y-13809317D01*
X13277325Y-13809317D02*
X13248753Y-13809317D01*
X13248753Y-13809317D02*
X13229706Y-13799793D01*
X13229706Y-13799793D02*
X13220182Y-13780746D01*
X13220182Y-13780746D02*
X13220182Y-13771222D01*
X13220182Y-13771222D02*
X13229706Y-13752174D01*
X13229706Y-13752174D02*
X13248753Y-13742650D01*
X13248753Y-13742650D02*
X13277325Y-13742650D01*
X13277325Y-13742650D02*
X13296372Y-13752174D01*
X13372563Y-13952174D02*
X13382087Y-13942650D01*
X13382087Y-13942650D02*
X13401134Y-13914079D01*
X13401134Y-13914079D02*
X13410658Y-13895031D01*
X13410658Y-13895031D02*
X13420182Y-13866460D01*
X13420182Y-13866460D02*
X13429706Y-13818841D01*
X13429706Y-13818841D02*
X13429706Y-13780746D01*
X13429706Y-13780746D02*
X13420182Y-13733127D01*
X13420182Y-13733127D02*
X13410658Y-13704555D01*
X13410658Y-13704555D02*
X13401134Y-13685508D01*
X13401134Y-13685508D02*
X13382087Y-13656936D01*
X13382087Y-13656936D02*
X13372563Y-13647412D01*
D14*
X8522500Y-14123500D02*
X8597500Y-14048500D01*
X8522500Y-13973500D01*
X8447500Y-14048500D01*
X8522500Y-14123500D01*
D11*
X8963039Y-14139984D02*
X8848753Y-14139984D01*
X8905896Y-14139984D02*
X8905896Y-13939984D01*
X8905896Y-13939984D02*
X8886848Y-13968555D01*
X8886848Y-13968555D02*
X8867801Y-13987603D01*
X8867801Y-13987603D02*
X8848753Y-13997127D01*
X9048753Y-14120936D02*
X9058277Y-14130460D01*
X9058277Y-14130460D02*
X9048753Y-14139984D01*
X9048753Y-14139984D02*
X9039229Y-14130460D01*
X9039229Y-14130460D02*
X9048753Y-14120936D01*
X9048753Y-14120936D02*
X9048753Y-14139984D01*
X9239229Y-13939984D02*
X9143991Y-13939984D01*
X9143991Y-13939984D02*
X9134467Y-14035222D01*
X9134467Y-14035222D02*
X9143991Y-14025698D01*
X9143991Y-14025698D02*
X9163039Y-14016174D01*
X9163039Y-14016174D02*
X9210658Y-14016174D01*
X9210658Y-14016174D02*
X9229705Y-14025698D01*
X9229705Y-14025698D02*
X9239229Y-14035222D01*
X9239229Y-14035222D02*
X9248753Y-14054269D01*
X9248753Y-14054269D02*
X9248753Y-14101888D01*
X9248753Y-14101888D02*
X9239229Y-14120936D01*
X9239229Y-14120936D02*
X9229705Y-14130460D01*
X9229705Y-14130460D02*
X9210658Y-14139984D01*
X9210658Y-14139984D02*
X9163039Y-14139984D01*
X9163039Y-14139984D02*
X9143991Y-14130460D01*
X9143991Y-14130460D02*
X9134467Y-14120936D01*
X9372562Y-13939984D02*
X9391610Y-13939984D01*
X9391610Y-13939984D02*
X9410658Y-13949508D01*
X9410658Y-13949508D02*
X9420182Y-13959031D01*
X9420182Y-13959031D02*
X9429705Y-13978079D01*
X9429705Y-13978079D02*
X9439229Y-14016174D01*
X9439229Y-14016174D02*
X9439229Y-14063793D01*
X9439229Y-14063793D02*
X9429705Y-14101888D01*
X9429705Y-14101888D02*
X9420182Y-14120936D01*
X9420182Y-14120936D02*
X9410658Y-14130460D01*
X9410658Y-14130460D02*
X9391610Y-14139984D01*
X9391610Y-14139984D02*
X9372562Y-14139984D01*
X9372562Y-14139984D02*
X9353515Y-14130460D01*
X9353515Y-14130460D02*
X9343991Y-14120936D01*
X9343991Y-14120936D02*
X9334467Y-14101888D01*
X9334467Y-14101888D02*
X9324943Y-14063793D01*
X9324943Y-14063793D02*
X9324943Y-14016174D01*
X9324943Y-14016174D02*
X9334467Y-13978079D01*
X9334467Y-13978079D02*
X9343991Y-13959031D01*
X9343991Y-13959031D02*
X9353515Y-13949508D01*
X9353515Y-13949508D02*
X9372562Y-13939984D01*
X9563039Y-13939984D02*
X9582086Y-13939984D01*
X9582086Y-13939984D02*
X9601134Y-13949508D01*
X9601134Y-13949508D02*
X9610658Y-13959031D01*
X9610658Y-13959031D02*
X9620182Y-13978079D01*
X9620182Y-13978079D02*
X9629705Y-14016174D01*
X9629705Y-14016174D02*
X9629705Y-14063793D01*
X9629705Y-14063793D02*
X9620182Y-14101888D01*
X9620182Y-14101888D02*
X9610658Y-14120936D01*
X9610658Y-14120936D02*
X9601134Y-14130460D01*
X9601134Y-14130460D02*
X9582086Y-14139984D01*
X9582086Y-14139984D02*
X9563039Y-14139984D01*
X9563039Y-14139984D02*
X9543991Y-14130460D01*
X9543991Y-14130460D02*
X9534467Y-14120936D01*
X9534467Y-14120936D02*
X9524943Y-14101888D01*
X9524943Y-14101888D02*
X9515420Y-14063793D01*
X9515420Y-14063793D02*
X9515420Y-14016174D01*
X9515420Y-14016174D02*
X9524943Y-13978079D01*
X9524943Y-13978079D02*
X9534467Y-13959031D01*
X9534467Y-13959031D02*
X9543991Y-13949508D01*
X9543991Y-13949508D02*
X9563039Y-13939984D01*
X9715420Y-14139984D02*
X9715420Y-14006650D01*
X9715420Y-14025698D02*
X9724943Y-14016174D01*
X9724943Y-14016174D02*
X9743991Y-14006650D01*
X9743991Y-14006650D02*
X9772563Y-14006650D01*
X9772563Y-14006650D02*
X9791610Y-14016174D01*
X9791610Y-14016174D02*
X9801134Y-14035222D01*
X9801134Y-14035222D02*
X9801134Y-14139984D01*
X9801134Y-14035222D02*
X9810658Y-14016174D01*
X9810658Y-14016174D02*
X9829705Y-14006650D01*
X9829705Y-14006650D02*
X9858277Y-14006650D01*
X9858277Y-14006650D02*
X9877324Y-14016174D01*
X9877324Y-14016174D02*
X9886848Y-14035222D01*
X9886848Y-14035222D02*
X9886848Y-14139984D01*
X9982086Y-14139984D02*
X9982086Y-14006650D01*
X9982086Y-14025698D02*
X9991610Y-14016174D01*
X9991610Y-14016174D02*
X10010658Y-14006650D01*
X10010658Y-14006650D02*
X10039229Y-14006650D01*
X10039229Y-14006650D02*
X10058277Y-14016174D01*
X10058277Y-14016174D02*
X10067801Y-14035222D01*
X10067801Y-14035222D02*
X10067801Y-14139984D01*
X10067801Y-14035222D02*
X10077324Y-14016174D01*
X10077324Y-14016174D02*
X10096372Y-14006650D01*
X10096372Y-14006650D02*
X10124943Y-14006650D01*
X10124943Y-14006650D02*
X10143991Y-14016174D01*
X10143991Y-14016174D02*
X10153515Y-14035222D01*
X10153515Y-14035222D02*
X10153515Y-14139984D01*
X10543991Y-13930460D02*
X10372563Y-14187603D01*
X10801134Y-13939984D02*
X10820182Y-13939984D01*
X10820182Y-13939984D02*
X10839229Y-13949508D01*
X10839229Y-13949508D02*
X10848753Y-13959031D01*
X10848753Y-13959031D02*
X10858277Y-13978079D01*
X10858277Y-13978079D02*
X10867801Y-14016174D01*
X10867801Y-14016174D02*
X10867801Y-14063793D01*
X10867801Y-14063793D02*
X10858277Y-14101888D01*
X10858277Y-14101888D02*
X10848753Y-14120936D01*
X10848753Y-14120936D02*
X10839229Y-14130460D01*
X10839229Y-14130460D02*
X10820182Y-14139984D01*
X10820182Y-14139984D02*
X10801134Y-14139984D01*
X10801134Y-14139984D02*
X10782086Y-14130460D01*
X10782086Y-14130460D02*
X10772563Y-14120936D01*
X10772563Y-14120936D02*
X10763039Y-14101888D01*
X10763039Y-14101888D02*
X10753515Y-14063793D01*
X10753515Y-14063793D02*
X10753515Y-14016174D01*
X10753515Y-14016174D02*
X10763039Y-13978079D01*
X10763039Y-13978079D02*
X10772563Y-13959031D01*
X10772563Y-13959031D02*
X10782086Y-13949508D01*
X10782086Y-13949508D02*
X10801134Y-13939984D01*
X10953515Y-14120936D02*
X10963039Y-14130460D01*
X10963039Y-14130460D02*
X10953515Y-14139984D01*
X10953515Y-14139984D02*
X10943991Y-14130460D01*
X10943991Y-14130460D02*
X10953515Y-14120936D01*
X10953515Y-14120936D02*
X10953515Y-14139984D01*
X11086848Y-13939984D02*
X11105896Y-13939984D01*
X11105896Y-13939984D02*
X11124944Y-13949508D01*
X11124944Y-13949508D02*
X11134467Y-13959031D01*
X11134467Y-13959031D02*
X11143991Y-13978079D01*
X11143991Y-13978079D02*
X11153515Y-14016174D01*
X11153515Y-14016174D02*
X11153515Y-14063793D01*
X11153515Y-14063793D02*
X11143991Y-14101888D01*
X11143991Y-14101888D02*
X11134467Y-14120936D01*
X11134467Y-14120936D02*
X11124944Y-14130460D01*
X11124944Y-14130460D02*
X11105896Y-14139984D01*
X11105896Y-14139984D02*
X11086848Y-14139984D01*
X11086848Y-14139984D02*
X11067801Y-14130460D01*
X11067801Y-14130460D02*
X11058277Y-14120936D01*
X11058277Y-14120936D02*
X11048753Y-14101888D01*
X11048753Y-14101888D02*
X11039229Y-14063793D01*
X11039229Y-14063793D02*
X11039229Y-14016174D01*
X11039229Y-14016174D02*
X11048753Y-13978079D01*
X11048753Y-13978079D02*
X11058277Y-13959031D01*
X11058277Y-13959031D02*
X11067801Y-13949508D01*
X11067801Y-13949508D02*
X11086848Y-13939984D01*
X11334467Y-13939984D02*
X11239229Y-13939984D01*
X11239229Y-13939984D02*
X11229705Y-14035222D01*
X11229705Y-14035222D02*
X11239229Y-14025698D01*
X11239229Y-14025698D02*
X11258277Y-14016174D01*
X11258277Y-14016174D02*
X11305896Y-14016174D01*
X11305896Y-14016174D02*
X11324944Y-14025698D01*
X11324944Y-14025698D02*
X11334467Y-14035222D01*
X11334467Y-14035222D02*
X11343991Y-14054269D01*
X11343991Y-14054269D02*
X11343991Y-14101888D01*
X11343991Y-14101888D02*
X11334467Y-14120936D01*
X11334467Y-14120936D02*
X11324944Y-14130460D01*
X11324944Y-14130460D02*
X11305896Y-14139984D01*
X11305896Y-14139984D02*
X11258277Y-14139984D01*
X11258277Y-14139984D02*
X11239229Y-14130460D01*
X11239229Y-14130460D02*
X11229705Y-14120936D01*
X11439229Y-14139984D02*
X11477324Y-14139984D01*
X11477324Y-14139984D02*
X11496372Y-14130460D01*
X11496372Y-14130460D02*
X11505896Y-14120936D01*
X11505896Y-14120936D02*
X11524944Y-14092365D01*
X11524944Y-14092365D02*
X11534467Y-14054269D01*
X11534467Y-14054269D02*
X11534467Y-13978079D01*
X11534467Y-13978079D02*
X11524944Y-13959031D01*
X11524944Y-13959031D02*
X11515420Y-13949508D01*
X11515420Y-13949508D02*
X11496372Y-13939984D01*
X11496372Y-13939984D02*
X11458277Y-13939984D01*
X11458277Y-13939984D02*
X11439229Y-13949508D01*
X11439229Y-13949508D02*
X11429705Y-13959031D01*
X11429705Y-13959031D02*
X11420182Y-13978079D01*
X11420182Y-13978079D02*
X11420182Y-14025698D01*
X11420182Y-14025698D02*
X11429705Y-14044746D01*
X11429705Y-14044746D02*
X11439229Y-14054269D01*
X11439229Y-14054269D02*
X11458277Y-14063793D01*
X11458277Y-14063793D02*
X11496372Y-14063793D01*
X11496372Y-14063793D02*
X11515420Y-14054269D01*
X11515420Y-14054269D02*
X11524944Y-14044746D01*
X11524944Y-14044746D02*
X11534467Y-14025698D01*
X11724944Y-14139984D02*
X11610658Y-14139984D01*
X11667801Y-14139984D02*
X11667801Y-13939984D01*
X11667801Y-13939984D02*
X11648753Y-13968555D01*
X11648753Y-13968555D02*
X11629705Y-13987603D01*
X11629705Y-13987603D02*
X11610658Y-13997127D01*
X11801134Y-13939984D02*
X11801134Y-13978079D01*
X11877325Y-13939984D02*
X11877325Y-13978079D01*
X12172563Y-14216174D02*
X12163039Y-14206650D01*
X12163039Y-14206650D02*
X12143991Y-14178079D01*
X12143991Y-14178079D02*
X12134467Y-14159031D01*
X12134467Y-14159031D02*
X12124944Y-14130460D01*
X12124944Y-14130460D02*
X12115420Y-14082841D01*
X12115420Y-14082841D02*
X12115420Y-14044746D01*
X12115420Y-14044746D02*
X12124944Y-13997127D01*
X12124944Y-13997127D02*
X12134467Y-13968555D01*
X12134467Y-13968555D02*
X12143991Y-13949508D01*
X12143991Y-13949508D02*
X12163039Y-13920936D01*
X12163039Y-13920936D02*
X12172563Y-13911412D01*
X12353515Y-14139984D02*
X12239229Y-14139984D01*
X12296372Y-14139984D02*
X12296372Y-13939984D01*
X12296372Y-13939984D02*
X12277325Y-13968555D01*
X12277325Y-13968555D02*
X12258277Y-13987603D01*
X12258277Y-13987603D02*
X12239229Y-13997127D01*
X12591610Y-14139984D02*
X12591610Y-13939984D01*
X12677325Y-14139984D02*
X12677325Y-14035222D01*
X12677325Y-14035222D02*
X12667801Y-14016174D01*
X12667801Y-14016174D02*
X12648753Y-14006650D01*
X12648753Y-14006650D02*
X12620182Y-14006650D01*
X12620182Y-14006650D02*
X12601134Y-14016174D01*
X12601134Y-14016174D02*
X12591610Y-14025698D01*
X12801134Y-14139984D02*
X12782087Y-14130460D01*
X12782087Y-14130460D02*
X12772563Y-14120936D01*
X12772563Y-14120936D02*
X12763039Y-14101888D01*
X12763039Y-14101888D02*
X12763039Y-14044746D01*
X12763039Y-14044746D02*
X12772563Y-14025698D01*
X12772563Y-14025698D02*
X12782087Y-14016174D01*
X12782087Y-14016174D02*
X12801134Y-14006650D01*
X12801134Y-14006650D02*
X12829706Y-14006650D01*
X12829706Y-14006650D02*
X12848753Y-14016174D01*
X12848753Y-14016174D02*
X12858277Y-14025698D01*
X12858277Y-14025698D02*
X12867801Y-14044746D01*
X12867801Y-14044746D02*
X12867801Y-14101888D01*
X12867801Y-14101888D02*
X12858277Y-14120936D01*
X12858277Y-14120936D02*
X12848753Y-14130460D01*
X12848753Y-14130460D02*
X12829706Y-14139984D01*
X12829706Y-14139984D02*
X12801134Y-14139984D01*
X12982087Y-14139984D02*
X12963039Y-14130460D01*
X12963039Y-14130460D02*
X12953515Y-14111412D01*
X12953515Y-14111412D02*
X12953515Y-13939984D01*
X13134468Y-14130460D02*
X13115420Y-14139984D01*
X13115420Y-14139984D02*
X13077325Y-14139984D01*
X13077325Y-14139984D02*
X13058277Y-14130460D01*
X13058277Y-14130460D02*
X13048753Y-14111412D01*
X13048753Y-14111412D02*
X13048753Y-14035222D01*
X13048753Y-14035222D02*
X13058277Y-14016174D01*
X13058277Y-14016174D02*
X13077325Y-14006650D01*
X13077325Y-14006650D02*
X13115420Y-14006650D01*
X13115420Y-14006650D02*
X13134468Y-14016174D01*
X13134468Y-14016174D02*
X13143991Y-14035222D01*
X13143991Y-14035222D02*
X13143991Y-14054269D01*
X13143991Y-14054269D02*
X13048753Y-14073317D01*
X13210658Y-14216174D02*
X13220182Y-14206650D01*
X13220182Y-14206650D02*
X13239229Y-14178079D01*
X13239229Y-14178079D02*
X13248753Y-14159031D01*
X13248753Y-14159031D02*
X13258277Y-14130460D01*
X13258277Y-14130460D02*
X13267801Y-14082841D01*
X13267801Y-14082841D02*
X13267801Y-14044746D01*
X13267801Y-14044746D02*
X13258277Y-13997127D01*
X13258277Y-13997127D02*
X13248753Y-13968555D01*
X13248753Y-13968555D02*
X13239229Y-13949508D01*
X13239229Y-13949508D02*
X13220182Y-13920936D01*
X13220182Y-13920936D02*
X13210658Y-13911412D01*
X8397500Y-14218500D02*
X8597500Y-14418500D01*
X8597500Y-14218500D02*
X8397500Y-14418500D01*
X8597500Y-14318500D02*
G75*
G02*
X8397500Y-14318500I-100000J0D01*
G01*
X8397500Y-14318500D02*
G75*
G02*
X8597500Y-14318500I100000J0D01*
G01*
X8848753Y-14229031D02*
X8858277Y-14219508D01*
X8858277Y-14219508D02*
X8877324Y-14209984D01*
X8877324Y-14209984D02*
X8924943Y-14209984D01*
X8924943Y-14209984D02*
X8943991Y-14219508D01*
X8943991Y-14219508D02*
X8953515Y-14229031D01*
X8953515Y-14229031D02*
X8963039Y-14248079D01*
X8963039Y-14248079D02*
X8963039Y-14267127D01*
X8963039Y-14267127D02*
X8953515Y-14295698D01*
X8953515Y-14295698D02*
X8839229Y-14409984D01*
X8839229Y-14409984D02*
X8963039Y-14409984D01*
X9048753Y-14390936D02*
X9058277Y-14400460D01*
X9058277Y-14400460D02*
X9048753Y-14409984D01*
X9048753Y-14409984D02*
X9039229Y-14400460D01*
X9039229Y-14400460D02*
X9048753Y-14390936D01*
X9048753Y-14390936D02*
X9048753Y-14409984D01*
X9182086Y-14209984D02*
X9201134Y-14209984D01*
X9201134Y-14209984D02*
X9220182Y-14219508D01*
X9220182Y-14219508D02*
X9229705Y-14229031D01*
X9229705Y-14229031D02*
X9239229Y-14248079D01*
X9239229Y-14248079D02*
X9248753Y-14286174D01*
X9248753Y-14286174D02*
X9248753Y-14333793D01*
X9248753Y-14333793D02*
X9239229Y-14371888D01*
X9239229Y-14371888D02*
X9229705Y-14390936D01*
X9229705Y-14390936D02*
X9220182Y-14400460D01*
X9220182Y-14400460D02*
X9201134Y-14409984D01*
X9201134Y-14409984D02*
X9182086Y-14409984D01*
X9182086Y-14409984D02*
X9163039Y-14400460D01*
X9163039Y-14400460D02*
X9153515Y-14390936D01*
X9153515Y-14390936D02*
X9143991Y-14371888D01*
X9143991Y-14371888D02*
X9134467Y-14333793D01*
X9134467Y-14333793D02*
X9134467Y-14286174D01*
X9134467Y-14286174D02*
X9143991Y-14248079D01*
X9143991Y-14248079D02*
X9153515Y-14229031D01*
X9153515Y-14229031D02*
X9163039Y-14219508D01*
X9163039Y-14219508D02*
X9182086Y-14209984D01*
X9372562Y-14209984D02*
X9391610Y-14209984D01*
X9391610Y-14209984D02*
X9410658Y-14219508D01*
X9410658Y-14219508D02*
X9420182Y-14229031D01*
X9420182Y-14229031D02*
X9429705Y-14248079D01*
X9429705Y-14248079D02*
X9439229Y-14286174D01*
X9439229Y-14286174D02*
X9439229Y-14333793D01*
X9439229Y-14333793D02*
X9429705Y-14371888D01*
X9429705Y-14371888D02*
X9420182Y-14390936D01*
X9420182Y-14390936D02*
X9410658Y-14400460D01*
X9410658Y-14400460D02*
X9391610Y-14409984D01*
X9391610Y-14409984D02*
X9372562Y-14409984D01*
X9372562Y-14409984D02*
X9353515Y-14400460D01*
X9353515Y-14400460D02*
X9343991Y-14390936D01*
X9343991Y-14390936D02*
X9334467Y-14371888D01*
X9334467Y-14371888D02*
X9324943Y-14333793D01*
X9324943Y-14333793D02*
X9324943Y-14286174D01*
X9324943Y-14286174D02*
X9334467Y-14248079D01*
X9334467Y-14248079D02*
X9343991Y-14229031D01*
X9343991Y-14229031D02*
X9353515Y-14219508D01*
X9353515Y-14219508D02*
X9372562Y-14209984D01*
X9563039Y-14209984D02*
X9582086Y-14209984D01*
X9582086Y-14209984D02*
X9601134Y-14219508D01*
X9601134Y-14219508D02*
X9610658Y-14229031D01*
X9610658Y-14229031D02*
X9620182Y-14248079D01*
X9620182Y-14248079D02*
X9629705Y-14286174D01*
X9629705Y-14286174D02*
X9629705Y-14333793D01*
X9629705Y-14333793D02*
X9620182Y-14371888D01*
X9620182Y-14371888D02*
X9610658Y-14390936D01*
X9610658Y-14390936D02*
X9601134Y-14400460D01*
X9601134Y-14400460D02*
X9582086Y-14409984D01*
X9582086Y-14409984D02*
X9563039Y-14409984D01*
X9563039Y-14409984D02*
X9543991Y-14400460D01*
X9543991Y-14400460D02*
X9534467Y-14390936D01*
X9534467Y-14390936D02*
X9524943Y-14371888D01*
X9524943Y-14371888D02*
X9515420Y-14333793D01*
X9515420Y-14333793D02*
X9515420Y-14286174D01*
X9515420Y-14286174D02*
X9524943Y-14248079D01*
X9524943Y-14248079D02*
X9534467Y-14229031D01*
X9534467Y-14229031D02*
X9543991Y-14219508D01*
X9543991Y-14219508D02*
X9563039Y-14209984D01*
X9715420Y-14409984D02*
X9715420Y-14276650D01*
X9715420Y-14295698D02*
X9724943Y-14286174D01*
X9724943Y-14286174D02*
X9743991Y-14276650D01*
X9743991Y-14276650D02*
X9772563Y-14276650D01*
X9772563Y-14276650D02*
X9791610Y-14286174D01*
X9791610Y-14286174D02*
X9801134Y-14305222D01*
X9801134Y-14305222D02*
X9801134Y-14409984D01*
X9801134Y-14305222D02*
X9810658Y-14286174D01*
X9810658Y-14286174D02*
X9829705Y-14276650D01*
X9829705Y-14276650D02*
X9858277Y-14276650D01*
X9858277Y-14276650D02*
X9877324Y-14286174D01*
X9877324Y-14286174D02*
X9886848Y-14305222D01*
X9886848Y-14305222D02*
X9886848Y-14409984D01*
X9982086Y-14409984D02*
X9982086Y-14276650D01*
X9982086Y-14295698D02*
X9991610Y-14286174D01*
X9991610Y-14286174D02*
X10010658Y-14276650D01*
X10010658Y-14276650D02*
X10039229Y-14276650D01*
X10039229Y-14276650D02*
X10058277Y-14286174D01*
X10058277Y-14286174D02*
X10067801Y-14305222D01*
X10067801Y-14305222D02*
X10067801Y-14409984D01*
X10067801Y-14305222D02*
X10077324Y-14286174D01*
X10077324Y-14286174D02*
X10096372Y-14276650D01*
X10096372Y-14276650D02*
X10124943Y-14276650D01*
X10124943Y-14276650D02*
X10143991Y-14286174D01*
X10143991Y-14286174D02*
X10153515Y-14305222D01*
X10153515Y-14305222D02*
X10153515Y-14409984D01*
X10543991Y-14200460D02*
X10372563Y-14457603D01*
X10801134Y-14209984D02*
X10820182Y-14209984D01*
X10820182Y-14209984D02*
X10839229Y-14219508D01*
X10839229Y-14219508D02*
X10848753Y-14229031D01*
X10848753Y-14229031D02*
X10858277Y-14248079D01*
X10858277Y-14248079D02*
X10867801Y-14286174D01*
X10867801Y-14286174D02*
X10867801Y-14333793D01*
X10867801Y-14333793D02*
X10858277Y-14371888D01*
X10858277Y-14371888D02*
X10848753Y-14390936D01*
X10848753Y-14390936D02*
X10839229Y-14400460D01*
X10839229Y-14400460D02*
X10820182Y-14409984D01*
X10820182Y-14409984D02*
X10801134Y-14409984D01*
X10801134Y-14409984D02*
X10782086Y-14400460D01*
X10782086Y-14400460D02*
X10772563Y-14390936D01*
X10772563Y-14390936D02*
X10763039Y-14371888D01*
X10763039Y-14371888D02*
X10753515Y-14333793D01*
X10753515Y-14333793D02*
X10753515Y-14286174D01*
X10753515Y-14286174D02*
X10763039Y-14248079D01*
X10763039Y-14248079D02*
X10772563Y-14229031D01*
X10772563Y-14229031D02*
X10782086Y-14219508D01*
X10782086Y-14219508D02*
X10801134Y-14209984D01*
X10953515Y-14390936D02*
X10963039Y-14400460D01*
X10963039Y-14400460D02*
X10953515Y-14409984D01*
X10953515Y-14409984D02*
X10943991Y-14400460D01*
X10943991Y-14400460D02*
X10953515Y-14390936D01*
X10953515Y-14390936D02*
X10953515Y-14409984D01*
X11086848Y-14209984D02*
X11105896Y-14209984D01*
X11105896Y-14209984D02*
X11124944Y-14219508D01*
X11124944Y-14219508D02*
X11134467Y-14229031D01*
X11134467Y-14229031D02*
X11143991Y-14248079D01*
X11143991Y-14248079D02*
X11153515Y-14286174D01*
X11153515Y-14286174D02*
X11153515Y-14333793D01*
X11153515Y-14333793D02*
X11143991Y-14371888D01*
X11143991Y-14371888D02*
X11134467Y-14390936D01*
X11134467Y-14390936D02*
X11124944Y-14400460D01*
X11124944Y-14400460D02*
X11105896Y-14409984D01*
X11105896Y-14409984D02*
X11086848Y-14409984D01*
X11086848Y-14409984D02*
X11067801Y-14400460D01*
X11067801Y-14400460D02*
X11058277Y-14390936D01*
X11058277Y-14390936D02*
X11048753Y-14371888D01*
X11048753Y-14371888D02*
X11039229Y-14333793D01*
X11039229Y-14333793D02*
X11039229Y-14286174D01*
X11039229Y-14286174D02*
X11048753Y-14248079D01*
X11048753Y-14248079D02*
X11058277Y-14229031D01*
X11058277Y-14229031D02*
X11067801Y-14219508D01*
X11067801Y-14219508D02*
X11086848Y-14209984D01*
X11220182Y-14209984D02*
X11353515Y-14209984D01*
X11353515Y-14209984D02*
X11267801Y-14409984D01*
X11458277Y-14295698D02*
X11439229Y-14286174D01*
X11439229Y-14286174D02*
X11429705Y-14276650D01*
X11429705Y-14276650D02*
X11420182Y-14257603D01*
X11420182Y-14257603D02*
X11420182Y-14248079D01*
X11420182Y-14248079D02*
X11429705Y-14229031D01*
X11429705Y-14229031D02*
X11439229Y-14219508D01*
X11439229Y-14219508D02*
X11458277Y-14209984D01*
X11458277Y-14209984D02*
X11496372Y-14209984D01*
X11496372Y-14209984D02*
X11515420Y-14219508D01*
X11515420Y-14219508D02*
X11524944Y-14229031D01*
X11524944Y-14229031D02*
X11534467Y-14248079D01*
X11534467Y-14248079D02*
X11534467Y-14257603D01*
X11534467Y-14257603D02*
X11524944Y-14276650D01*
X11524944Y-14276650D02*
X11515420Y-14286174D01*
X11515420Y-14286174D02*
X11496372Y-14295698D01*
X11496372Y-14295698D02*
X11458277Y-14295698D01*
X11458277Y-14295698D02*
X11439229Y-14305222D01*
X11439229Y-14305222D02*
X11429705Y-14314746D01*
X11429705Y-14314746D02*
X11420182Y-14333793D01*
X11420182Y-14333793D02*
X11420182Y-14371888D01*
X11420182Y-14371888D02*
X11429705Y-14390936D01*
X11429705Y-14390936D02*
X11439229Y-14400460D01*
X11439229Y-14400460D02*
X11458277Y-14409984D01*
X11458277Y-14409984D02*
X11496372Y-14409984D01*
X11496372Y-14409984D02*
X11515420Y-14400460D01*
X11515420Y-14400460D02*
X11524944Y-14390936D01*
X11524944Y-14390936D02*
X11534467Y-14371888D01*
X11534467Y-14371888D02*
X11534467Y-14333793D01*
X11534467Y-14333793D02*
X11524944Y-14314746D01*
X11524944Y-14314746D02*
X11515420Y-14305222D01*
X11515420Y-14305222D02*
X11496372Y-14295698D01*
X11601134Y-14209984D02*
X11734467Y-14209984D01*
X11734467Y-14209984D02*
X11648753Y-14409984D01*
X11801134Y-14209984D02*
X11801134Y-14248079D01*
X11877325Y-14209984D02*
X11877325Y-14248079D01*
X12172563Y-14486174D02*
X12163039Y-14476650D01*
X12163039Y-14476650D02*
X12143991Y-14448079D01*
X12143991Y-14448079D02*
X12134467Y-14429031D01*
X12134467Y-14429031D02*
X12124944Y-14400460D01*
X12124944Y-14400460D02*
X12115420Y-14352841D01*
X12115420Y-14352841D02*
X12115420Y-14314746D01*
X12115420Y-14314746D02*
X12124944Y-14267127D01*
X12124944Y-14267127D02*
X12134467Y-14238555D01*
X12134467Y-14238555D02*
X12143991Y-14219508D01*
X12143991Y-14219508D02*
X12163039Y-14190936D01*
X12163039Y-14190936D02*
X12172563Y-14181412D01*
X12353515Y-14409984D02*
X12239229Y-14409984D01*
X12296372Y-14409984D02*
X12296372Y-14209984D01*
X12296372Y-14209984D02*
X12277325Y-14238555D01*
X12277325Y-14238555D02*
X12258277Y-14257603D01*
X12258277Y-14257603D02*
X12239229Y-14267127D01*
X12591610Y-14409984D02*
X12591610Y-14209984D01*
X12677325Y-14409984D02*
X12677325Y-14305222D01*
X12677325Y-14305222D02*
X12667801Y-14286174D01*
X12667801Y-14286174D02*
X12648753Y-14276650D01*
X12648753Y-14276650D02*
X12620182Y-14276650D01*
X12620182Y-14276650D02*
X12601134Y-14286174D01*
X12601134Y-14286174D02*
X12591610Y-14295698D01*
X12801134Y-14409984D02*
X12782087Y-14400460D01*
X12782087Y-14400460D02*
X12772563Y-14390936D01*
X12772563Y-14390936D02*
X12763039Y-14371888D01*
X12763039Y-14371888D02*
X12763039Y-14314746D01*
X12763039Y-14314746D02*
X12772563Y-14295698D01*
X12772563Y-14295698D02*
X12782087Y-14286174D01*
X12782087Y-14286174D02*
X12801134Y-14276650D01*
X12801134Y-14276650D02*
X12829706Y-14276650D01*
X12829706Y-14276650D02*
X12848753Y-14286174D01*
X12848753Y-14286174D02*
X12858277Y-14295698D01*
X12858277Y-14295698D02*
X12867801Y-14314746D01*
X12867801Y-14314746D02*
X12867801Y-14371888D01*
X12867801Y-14371888D02*
X12858277Y-14390936D01*
X12858277Y-14390936D02*
X12848753Y-14400460D01*
X12848753Y-14400460D02*
X12829706Y-14409984D01*
X12829706Y-14409984D02*
X12801134Y-14409984D01*
X12982087Y-14409984D02*
X12963039Y-14400460D01*
X12963039Y-14400460D02*
X12953515Y-14381412D01*
X12953515Y-14381412D02*
X12953515Y-14209984D01*
X13134468Y-14400460D02*
X13115420Y-14409984D01*
X13115420Y-14409984D02*
X13077325Y-14409984D01*
X13077325Y-14409984D02*
X13058277Y-14400460D01*
X13058277Y-14400460D02*
X13048753Y-14381412D01*
X13048753Y-14381412D02*
X13048753Y-14305222D01*
X13048753Y-14305222D02*
X13058277Y-14286174D01*
X13058277Y-14286174D02*
X13077325Y-14276650D01*
X13077325Y-14276650D02*
X13115420Y-14276650D01*
X13115420Y-14276650D02*
X13134468Y-14286174D01*
X13134468Y-14286174D02*
X13143991Y-14305222D01*
X13143991Y-14305222D02*
X13143991Y-14324269D01*
X13143991Y-14324269D02*
X13048753Y-14343317D01*
X13210658Y-14486174D02*
X13220182Y-14476650D01*
X13220182Y-14476650D02*
X13239229Y-14448079D01*
X13239229Y-14448079D02*
X13248753Y-14429031D01*
X13248753Y-14429031D02*
X13258277Y-14400460D01*
X13258277Y-14400460D02*
X13267801Y-14352841D01*
X13267801Y-14352841D02*
X13267801Y-14314746D01*
X13267801Y-14314746D02*
X13258277Y-14267127D01*
X13258277Y-14267127D02*
X13248753Y-14238555D01*
X13248753Y-14238555D02*
X13239229Y-14219508D01*
X13239229Y-14219508D02*
X13220182Y-14190936D01*
X13220182Y-14190936D02*
X13210658Y-14181412D01*
M02*
