%TF.GenerationSoftware,KiCad,Pcbnew,9.0.5-9.0.5~ubuntu24.04.1*%
%TF.CreationDate,2025-11-04T21:28:18+01:00*%
%TF.ProjectId,main_board,6d61696e-5f62-46f6-9172-642e6b696361,rev?*%
%TF.SameCoordinates,Original*%
%TF.FileFunction,Drillmap*%
%TF.FilePolarity,Positive*%
%FSLAX45Y45*%
G04 Gerber Fmt 4.5, Leading zero omitted, Abs format (unit mm)*
G04 Created by KiCad (PCBNEW 9.0.5-9.0.5~ubuntu24.04.1) date 2025-11-04 21:28:18*
%MOMM*%
%LPD*%
G01*
G04 APERTURE LIST*
%ADD10C,0.050000*%
%ADD11C,0.200000*%
%ADD12C,0.320000*%
G04 APERTURE END LIST*
D10*
X8600000Y-4350000D02*
X18600000Y-4350000D01*
X18600000Y-12349590D02*
X8600000Y-12349590D01*
X18600000Y-4350000D02*
X18600000Y-12350000D01*
X8600000Y-12350000D02*
X8600000Y-4350000D01*
D11*
D12*
X8939793Y-11688996D02*
X9259793Y-12008996D01*
X9259793Y-11688996D02*
X8939793Y-12008996D01*
X8940000Y-4690000D02*
X9260000Y-5010000D01*
X9260000Y-4690000D02*
X8940000Y-5010000D01*
X17939188Y-11689188D02*
X18259188Y-12009188D01*
X18259188Y-11689188D02*
X17939188Y-12009188D01*
X17940000Y-4690000D02*
X18260000Y-5010000D01*
X18260000Y-4690000D02*
X17940000Y-5010000D01*
D11*
X8858277Y-12663984D02*
X8858277Y-12463984D01*
X8858277Y-12463984D02*
X8905896Y-12463984D01*
X8905896Y-12463984D02*
X8934467Y-12473508D01*
X8934467Y-12473508D02*
X8953515Y-12492555D01*
X8953515Y-12492555D02*
X8963039Y-12511603D01*
X8963039Y-12511603D02*
X8972562Y-12549698D01*
X8972562Y-12549698D02*
X8972562Y-12578269D01*
X8972562Y-12578269D02*
X8963039Y-12616365D01*
X8963039Y-12616365D02*
X8953515Y-12635412D01*
X8953515Y-12635412D02*
X8934467Y-12654460D01*
X8934467Y-12654460D02*
X8905896Y-12663984D01*
X8905896Y-12663984D02*
X8858277Y-12663984D01*
X9058277Y-12663984D02*
X9058277Y-12530650D01*
X9058277Y-12568746D02*
X9067801Y-12549698D01*
X9067801Y-12549698D02*
X9077324Y-12540174D01*
X9077324Y-12540174D02*
X9096372Y-12530650D01*
X9096372Y-12530650D02*
X9115420Y-12530650D01*
X9182086Y-12663984D02*
X9182086Y-12530650D01*
X9182086Y-12463984D02*
X9172562Y-12473508D01*
X9172562Y-12473508D02*
X9182086Y-12483031D01*
X9182086Y-12483031D02*
X9191610Y-12473508D01*
X9191610Y-12473508D02*
X9182086Y-12463984D01*
X9182086Y-12463984D02*
X9182086Y-12483031D01*
X9305896Y-12663984D02*
X9286848Y-12654460D01*
X9286848Y-12654460D02*
X9277324Y-12635412D01*
X9277324Y-12635412D02*
X9277324Y-12463984D01*
X9410658Y-12663984D02*
X9391610Y-12654460D01*
X9391610Y-12654460D02*
X9382086Y-12635412D01*
X9382086Y-12635412D02*
X9382086Y-12463984D01*
X9639229Y-12663984D02*
X9639229Y-12463984D01*
X9639229Y-12463984D02*
X9705896Y-12606841D01*
X9705896Y-12606841D02*
X9772562Y-12463984D01*
X9772562Y-12463984D02*
X9772562Y-12663984D01*
X9953515Y-12663984D02*
X9953515Y-12559222D01*
X9953515Y-12559222D02*
X9943991Y-12540174D01*
X9943991Y-12540174D02*
X9924943Y-12530650D01*
X9924943Y-12530650D02*
X9886848Y-12530650D01*
X9886848Y-12530650D02*
X9867801Y-12540174D01*
X9953515Y-12654460D02*
X9934467Y-12663984D01*
X9934467Y-12663984D02*
X9886848Y-12663984D01*
X9886848Y-12663984D02*
X9867801Y-12654460D01*
X9867801Y-12654460D02*
X9858277Y-12635412D01*
X9858277Y-12635412D02*
X9858277Y-12616365D01*
X9858277Y-12616365D02*
X9867801Y-12597317D01*
X9867801Y-12597317D02*
X9886848Y-12587793D01*
X9886848Y-12587793D02*
X9934467Y-12587793D01*
X9934467Y-12587793D02*
X9953515Y-12578269D01*
X10048753Y-12530650D02*
X10048753Y-12730650D01*
X10048753Y-12540174D02*
X10067801Y-12530650D01*
X10067801Y-12530650D02*
X10105896Y-12530650D01*
X10105896Y-12530650D02*
X10124943Y-12540174D01*
X10124943Y-12540174D02*
X10134467Y-12549698D01*
X10134467Y-12549698D02*
X10143991Y-12568746D01*
X10143991Y-12568746D02*
X10143991Y-12625888D01*
X10143991Y-12625888D02*
X10134467Y-12644936D01*
X10134467Y-12644936D02*
X10124943Y-12654460D01*
X10124943Y-12654460D02*
X10105896Y-12663984D01*
X10105896Y-12663984D02*
X10067801Y-12663984D01*
X10067801Y-12663984D02*
X10048753Y-12654460D01*
X10229705Y-12644936D02*
X10239229Y-12654460D01*
X10239229Y-12654460D02*
X10229705Y-12663984D01*
X10229705Y-12663984D02*
X10220182Y-12654460D01*
X10220182Y-12654460D02*
X10229705Y-12644936D01*
X10229705Y-12644936D02*
X10229705Y-12663984D01*
X10229705Y-12540174D02*
X10239229Y-12549698D01*
X10239229Y-12549698D02*
X10229705Y-12559222D01*
X10229705Y-12559222D02*
X10220182Y-12549698D01*
X10220182Y-12549698D02*
X10229705Y-12540174D01*
X10229705Y-12540174D02*
X10229705Y-12559222D01*
X8397500Y-12892500D02*
X8597500Y-13092500D01*
X8597500Y-12892500D02*
X8397500Y-13092500D01*
X8839229Y-12883984D02*
X8963039Y-12883984D01*
X8963039Y-12883984D02*
X8896372Y-12960174D01*
X8896372Y-12960174D02*
X8924943Y-12960174D01*
X8924943Y-12960174D02*
X8943991Y-12969698D01*
X8943991Y-12969698D02*
X8953515Y-12979222D01*
X8953515Y-12979222D02*
X8963039Y-12998269D01*
X8963039Y-12998269D02*
X8963039Y-13045888D01*
X8963039Y-13045888D02*
X8953515Y-13064936D01*
X8953515Y-13064936D02*
X8943991Y-13074460D01*
X8943991Y-13074460D02*
X8924943Y-13083984D01*
X8924943Y-13083984D02*
X8867801Y-13083984D01*
X8867801Y-13083984D02*
X8848753Y-13074460D01*
X8848753Y-13074460D02*
X8839229Y-13064936D01*
X9048753Y-13064936D02*
X9058277Y-13074460D01*
X9058277Y-13074460D02*
X9048753Y-13083984D01*
X9048753Y-13083984D02*
X9039229Y-13074460D01*
X9039229Y-13074460D02*
X9048753Y-13064936D01*
X9048753Y-13064936D02*
X9048753Y-13083984D01*
X9134467Y-12903031D02*
X9143991Y-12893508D01*
X9143991Y-12893508D02*
X9163039Y-12883984D01*
X9163039Y-12883984D02*
X9210658Y-12883984D01*
X9210658Y-12883984D02*
X9229705Y-12893508D01*
X9229705Y-12893508D02*
X9239229Y-12903031D01*
X9239229Y-12903031D02*
X9248753Y-12922079D01*
X9248753Y-12922079D02*
X9248753Y-12941127D01*
X9248753Y-12941127D02*
X9239229Y-12969698D01*
X9239229Y-12969698D02*
X9124943Y-13083984D01*
X9124943Y-13083984D02*
X9248753Y-13083984D01*
X9372562Y-12883984D02*
X9391610Y-12883984D01*
X9391610Y-12883984D02*
X9410658Y-12893508D01*
X9410658Y-12893508D02*
X9420182Y-12903031D01*
X9420182Y-12903031D02*
X9429705Y-12922079D01*
X9429705Y-12922079D02*
X9439229Y-12960174D01*
X9439229Y-12960174D02*
X9439229Y-13007793D01*
X9439229Y-13007793D02*
X9429705Y-13045888D01*
X9429705Y-13045888D02*
X9420182Y-13064936D01*
X9420182Y-13064936D02*
X9410658Y-13074460D01*
X9410658Y-13074460D02*
X9391610Y-13083984D01*
X9391610Y-13083984D02*
X9372562Y-13083984D01*
X9372562Y-13083984D02*
X9353515Y-13074460D01*
X9353515Y-13074460D02*
X9343991Y-13064936D01*
X9343991Y-13064936D02*
X9334467Y-13045888D01*
X9334467Y-13045888D02*
X9324943Y-13007793D01*
X9324943Y-13007793D02*
X9324943Y-12960174D01*
X9324943Y-12960174D02*
X9334467Y-12922079D01*
X9334467Y-12922079D02*
X9343991Y-12903031D01*
X9343991Y-12903031D02*
X9353515Y-12893508D01*
X9353515Y-12893508D02*
X9372562Y-12883984D01*
X9563039Y-12883984D02*
X9582086Y-12883984D01*
X9582086Y-12883984D02*
X9601134Y-12893508D01*
X9601134Y-12893508D02*
X9610658Y-12903031D01*
X9610658Y-12903031D02*
X9620182Y-12922079D01*
X9620182Y-12922079D02*
X9629705Y-12960174D01*
X9629705Y-12960174D02*
X9629705Y-13007793D01*
X9629705Y-13007793D02*
X9620182Y-13045888D01*
X9620182Y-13045888D02*
X9610658Y-13064936D01*
X9610658Y-13064936D02*
X9601134Y-13074460D01*
X9601134Y-13074460D02*
X9582086Y-13083984D01*
X9582086Y-13083984D02*
X9563039Y-13083984D01*
X9563039Y-13083984D02*
X9543991Y-13074460D01*
X9543991Y-13074460D02*
X9534467Y-13064936D01*
X9534467Y-13064936D02*
X9524943Y-13045888D01*
X9524943Y-13045888D02*
X9515420Y-13007793D01*
X9515420Y-13007793D02*
X9515420Y-12960174D01*
X9515420Y-12960174D02*
X9524943Y-12922079D01*
X9524943Y-12922079D02*
X9534467Y-12903031D01*
X9534467Y-12903031D02*
X9543991Y-12893508D01*
X9543991Y-12893508D02*
X9563039Y-12883984D01*
X9715420Y-13083984D02*
X9715420Y-12950650D01*
X9715420Y-12969698D02*
X9724943Y-12960174D01*
X9724943Y-12960174D02*
X9743991Y-12950650D01*
X9743991Y-12950650D02*
X9772563Y-12950650D01*
X9772563Y-12950650D02*
X9791610Y-12960174D01*
X9791610Y-12960174D02*
X9801134Y-12979222D01*
X9801134Y-12979222D02*
X9801134Y-13083984D01*
X9801134Y-12979222D02*
X9810658Y-12960174D01*
X9810658Y-12960174D02*
X9829705Y-12950650D01*
X9829705Y-12950650D02*
X9858277Y-12950650D01*
X9858277Y-12950650D02*
X9877324Y-12960174D01*
X9877324Y-12960174D02*
X9886848Y-12979222D01*
X9886848Y-12979222D02*
X9886848Y-13083984D01*
X9982086Y-13083984D02*
X9982086Y-12950650D01*
X9982086Y-12969698D02*
X9991610Y-12960174D01*
X9991610Y-12960174D02*
X10010658Y-12950650D01*
X10010658Y-12950650D02*
X10039229Y-12950650D01*
X10039229Y-12950650D02*
X10058277Y-12960174D01*
X10058277Y-12960174D02*
X10067801Y-12979222D01*
X10067801Y-12979222D02*
X10067801Y-13083984D01*
X10067801Y-12979222D02*
X10077324Y-12960174D01*
X10077324Y-12960174D02*
X10096372Y-12950650D01*
X10096372Y-12950650D02*
X10124943Y-12950650D01*
X10124943Y-12950650D02*
X10143991Y-12960174D01*
X10143991Y-12960174D02*
X10153515Y-12979222D01*
X10153515Y-12979222D02*
X10153515Y-13083984D01*
X10543991Y-12874460D02*
X10372563Y-13131603D01*
X10801134Y-12883984D02*
X10820182Y-12883984D01*
X10820182Y-12883984D02*
X10839229Y-12893508D01*
X10839229Y-12893508D02*
X10848753Y-12903031D01*
X10848753Y-12903031D02*
X10858277Y-12922079D01*
X10858277Y-12922079D02*
X10867801Y-12960174D01*
X10867801Y-12960174D02*
X10867801Y-13007793D01*
X10867801Y-13007793D02*
X10858277Y-13045888D01*
X10858277Y-13045888D02*
X10848753Y-13064936D01*
X10848753Y-13064936D02*
X10839229Y-13074460D01*
X10839229Y-13074460D02*
X10820182Y-13083984D01*
X10820182Y-13083984D02*
X10801134Y-13083984D01*
X10801134Y-13083984D02*
X10782086Y-13074460D01*
X10782086Y-13074460D02*
X10772563Y-13064936D01*
X10772563Y-13064936D02*
X10763039Y-13045888D01*
X10763039Y-13045888D02*
X10753515Y-13007793D01*
X10753515Y-13007793D02*
X10753515Y-12960174D01*
X10753515Y-12960174D02*
X10763039Y-12922079D01*
X10763039Y-12922079D02*
X10772563Y-12903031D01*
X10772563Y-12903031D02*
X10782086Y-12893508D01*
X10782086Y-12893508D02*
X10801134Y-12883984D01*
X10953515Y-13064936D02*
X10963039Y-13074460D01*
X10963039Y-13074460D02*
X10953515Y-13083984D01*
X10953515Y-13083984D02*
X10943991Y-13074460D01*
X10943991Y-13074460D02*
X10953515Y-13064936D01*
X10953515Y-13064936D02*
X10953515Y-13083984D01*
X11153515Y-13083984D02*
X11039229Y-13083984D01*
X11096372Y-13083984D02*
X11096372Y-12883984D01*
X11096372Y-12883984D02*
X11077325Y-12912555D01*
X11077325Y-12912555D02*
X11058277Y-12931603D01*
X11058277Y-12931603D02*
X11039229Y-12941127D01*
X11229705Y-12903031D02*
X11239229Y-12893508D01*
X11239229Y-12893508D02*
X11258277Y-12883984D01*
X11258277Y-12883984D02*
X11305896Y-12883984D01*
X11305896Y-12883984D02*
X11324944Y-12893508D01*
X11324944Y-12893508D02*
X11334467Y-12903031D01*
X11334467Y-12903031D02*
X11343991Y-12922079D01*
X11343991Y-12922079D02*
X11343991Y-12941127D01*
X11343991Y-12941127D02*
X11334467Y-12969698D01*
X11334467Y-12969698D02*
X11220182Y-13083984D01*
X11220182Y-13083984D02*
X11343991Y-13083984D01*
X11515420Y-12883984D02*
X11477324Y-12883984D01*
X11477324Y-12883984D02*
X11458277Y-12893508D01*
X11458277Y-12893508D02*
X11448753Y-12903031D01*
X11448753Y-12903031D02*
X11429705Y-12931603D01*
X11429705Y-12931603D02*
X11420182Y-12969698D01*
X11420182Y-12969698D02*
X11420182Y-13045888D01*
X11420182Y-13045888D02*
X11429705Y-13064936D01*
X11429705Y-13064936D02*
X11439229Y-13074460D01*
X11439229Y-13074460D02*
X11458277Y-13083984D01*
X11458277Y-13083984D02*
X11496372Y-13083984D01*
X11496372Y-13083984D02*
X11515420Y-13074460D01*
X11515420Y-13074460D02*
X11524944Y-13064936D01*
X11524944Y-13064936D02*
X11534467Y-13045888D01*
X11534467Y-13045888D02*
X11534467Y-12998269D01*
X11534467Y-12998269D02*
X11524944Y-12979222D01*
X11524944Y-12979222D02*
X11515420Y-12969698D01*
X11515420Y-12969698D02*
X11496372Y-12960174D01*
X11496372Y-12960174D02*
X11458277Y-12960174D01*
X11458277Y-12960174D02*
X11439229Y-12969698D01*
X11439229Y-12969698D02*
X11429705Y-12979222D01*
X11429705Y-12979222D02*
X11420182Y-12998269D01*
X11658277Y-12883984D02*
X11677325Y-12883984D01*
X11677325Y-12883984D02*
X11696372Y-12893508D01*
X11696372Y-12893508D02*
X11705896Y-12903031D01*
X11705896Y-12903031D02*
X11715420Y-12922079D01*
X11715420Y-12922079D02*
X11724944Y-12960174D01*
X11724944Y-12960174D02*
X11724944Y-13007793D01*
X11724944Y-13007793D02*
X11715420Y-13045888D01*
X11715420Y-13045888D02*
X11705896Y-13064936D01*
X11705896Y-13064936D02*
X11696372Y-13074460D01*
X11696372Y-13074460D02*
X11677325Y-13083984D01*
X11677325Y-13083984D02*
X11658277Y-13083984D01*
X11658277Y-13083984D02*
X11639229Y-13074460D01*
X11639229Y-13074460D02*
X11629705Y-13064936D01*
X11629705Y-13064936D02*
X11620182Y-13045888D01*
X11620182Y-13045888D02*
X11610658Y-13007793D01*
X11610658Y-13007793D02*
X11610658Y-12960174D01*
X11610658Y-12960174D02*
X11620182Y-12922079D01*
X11620182Y-12922079D02*
X11629705Y-12903031D01*
X11629705Y-12903031D02*
X11639229Y-12893508D01*
X11639229Y-12893508D02*
X11658277Y-12883984D01*
X11801134Y-12883984D02*
X11801134Y-12922079D01*
X11877325Y-12883984D02*
X11877325Y-12922079D01*
X12172563Y-13160174D02*
X12163039Y-13150650D01*
X12163039Y-13150650D02*
X12143991Y-13122079D01*
X12143991Y-13122079D02*
X12134467Y-13103031D01*
X12134467Y-13103031D02*
X12124944Y-13074460D01*
X12124944Y-13074460D02*
X12115420Y-13026841D01*
X12115420Y-13026841D02*
X12115420Y-12988746D01*
X12115420Y-12988746D02*
X12124944Y-12941127D01*
X12124944Y-12941127D02*
X12134467Y-12912555D01*
X12134467Y-12912555D02*
X12143991Y-12893508D01*
X12143991Y-12893508D02*
X12163039Y-12864936D01*
X12163039Y-12864936D02*
X12172563Y-12855412D01*
X12334467Y-12950650D02*
X12334467Y-13083984D01*
X12286848Y-12874460D02*
X12239229Y-13017317D01*
X12239229Y-13017317D02*
X12363039Y-13017317D01*
X12591610Y-13083984D02*
X12591610Y-12883984D01*
X12677325Y-13083984D02*
X12677325Y-12979222D01*
X12677325Y-12979222D02*
X12667801Y-12960174D01*
X12667801Y-12960174D02*
X12648753Y-12950650D01*
X12648753Y-12950650D02*
X12620182Y-12950650D01*
X12620182Y-12950650D02*
X12601134Y-12960174D01*
X12601134Y-12960174D02*
X12591610Y-12969698D01*
X12801134Y-13083984D02*
X12782087Y-13074460D01*
X12782087Y-13074460D02*
X12772563Y-13064936D01*
X12772563Y-13064936D02*
X12763039Y-13045888D01*
X12763039Y-13045888D02*
X12763039Y-12988746D01*
X12763039Y-12988746D02*
X12772563Y-12969698D01*
X12772563Y-12969698D02*
X12782087Y-12960174D01*
X12782087Y-12960174D02*
X12801134Y-12950650D01*
X12801134Y-12950650D02*
X12829706Y-12950650D01*
X12829706Y-12950650D02*
X12848753Y-12960174D01*
X12848753Y-12960174D02*
X12858277Y-12969698D01*
X12858277Y-12969698D02*
X12867801Y-12988746D01*
X12867801Y-12988746D02*
X12867801Y-13045888D01*
X12867801Y-13045888D02*
X12858277Y-13064936D01*
X12858277Y-13064936D02*
X12848753Y-13074460D01*
X12848753Y-13074460D02*
X12829706Y-13083984D01*
X12829706Y-13083984D02*
X12801134Y-13083984D01*
X12982087Y-13083984D02*
X12963039Y-13074460D01*
X12963039Y-13074460D02*
X12953515Y-13055412D01*
X12953515Y-13055412D02*
X12953515Y-12883984D01*
X13134468Y-13074460D02*
X13115420Y-13083984D01*
X13115420Y-13083984D02*
X13077325Y-13083984D01*
X13077325Y-13083984D02*
X13058277Y-13074460D01*
X13058277Y-13074460D02*
X13048753Y-13055412D01*
X13048753Y-13055412D02*
X13048753Y-12979222D01*
X13048753Y-12979222D02*
X13058277Y-12960174D01*
X13058277Y-12960174D02*
X13077325Y-12950650D01*
X13077325Y-12950650D02*
X13115420Y-12950650D01*
X13115420Y-12950650D02*
X13134468Y-12960174D01*
X13134468Y-12960174D02*
X13143991Y-12979222D01*
X13143991Y-12979222D02*
X13143991Y-12998269D01*
X13143991Y-12998269D02*
X13048753Y-13017317D01*
X13220182Y-13074460D02*
X13239229Y-13083984D01*
X13239229Y-13083984D02*
X13277325Y-13083984D01*
X13277325Y-13083984D02*
X13296372Y-13074460D01*
X13296372Y-13074460D02*
X13305896Y-13055412D01*
X13305896Y-13055412D02*
X13305896Y-13045888D01*
X13305896Y-13045888D02*
X13296372Y-13026841D01*
X13296372Y-13026841D02*
X13277325Y-13017317D01*
X13277325Y-13017317D02*
X13248753Y-13017317D01*
X13248753Y-13017317D02*
X13229706Y-13007793D01*
X13229706Y-13007793D02*
X13220182Y-12988746D01*
X13220182Y-12988746D02*
X13220182Y-12979222D01*
X13220182Y-12979222D02*
X13229706Y-12960174D01*
X13229706Y-12960174D02*
X13248753Y-12950650D01*
X13248753Y-12950650D02*
X13277325Y-12950650D01*
X13277325Y-12950650D02*
X13296372Y-12960174D01*
X13372563Y-13160174D02*
X13382087Y-13150650D01*
X13382087Y-13150650D02*
X13401134Y-13122079D01*
X13401134Y-13122079D02*
X13410658Y-13103031D01*
X13410658Y-13103031D02*
X13420182Y-13074460D01*
X13420182Y-13074460D02*
X13429706Y-13026841D01*
X13429706Y-13026841D02*
X13429706Y-12988746D01*
X13429706Y-12988746D02*
X13420182Y-12941127D01*
X13420182Y-12941127D02*
X13410658Y-12912555D01*
X13410658Y-12912555D02*
X13401134Y-12893508D01*
X13401134Y-12893508D02*
X13382087Y-12864936D01*
X13382087Y-12864936D02*
X13372563Y-12855412D01*
X13734468Y-13160174D02*
X13724944Y-13150650D01*
X13724944Y-13150650D02*
X13705896Y-13122079D01*
X13705896Y-13122079D02*
X13696372Y-13103031D01*
X13696372Y-13103031D02*
X13686849Y-13074460D01*
X13686849Y-13074460D02*
X13677325Y-13026841D01*
X13677325Y-13026841D02*
X13677325Y-12988746D01*
X13677325Y-12988746D02*
X13686849Y-12941127D01*
X13686849Y-12941127D02*
X13696372Y-12912555D01*
X13696372Y-12912555D02*
X13705896Y-12893508D01*
X13705896Y-12893508D02*
X13724944Y-12864936D01*
X13724944Y-12864936D02*
X13734468Y-12855412D01*
X13810658Y-12950650D02*
X13810658Y-13083984D01*
X13810658Y-12969698D02*
X13820182Y-12960174D01*
X13820182Y-12960174D02*
X13839229Y-12950650D01*
X13839229Y-12950650D02*
X13867801Y-12950650D01*
X13867801Y-12950650D02*
X13886849Y-12960174D01*
X13886849Y-12960174D02*
X13896372Y-12979222D01*
X13896372Y-12979222D02*
X13896372Y-13083984D01*
X14020182Y-13083984D02*
X14001134Y-13074460D01*
X14001134Y-13074460D02*
X13991610Y-13064936D01*
X13991610Y-13064936D02*
X13982087Y-13045888D01*
X13982087Y-13045888D02*
X13982087Y-12988746D01*
X13982087Y-12988746D02*
X13991610Y-12969698D01*
X13991610Y-12969698D02*
X14001134Y-12960174D01*
X14001134Y-12960174D02*
X14020182Y-12950650D01*
X14020182Y-12950650D02*
X14048753Y-12950650D01*
X14048753Y-12950650D02*
X14067801Y-12960174D01*
X14067801Y-12960174D02*
X14077325Y-12969698D01*
X14077325Y-12969698D02*
X14086849Y-12988746D01*
X14086849Y-12988746D02*
X14086849Y-13045888D01*
X14086849Y-13045888D02*
X14077325Y-13064936D01*
X14077325Y-13064936D02*
X14067801Y-13074460D01*
X14067801Y-13074460D02*
X14048753Y-13083984D01*
X14048753Y-13083984D02*
X14020182Y-13083984D01*
X14143991Y-12950650D02*
X14220182Y-12950650D01*
X14172563Y-12883984D02*
X14172563Y-13055412D01*
X14172563Y-13055412D02*
X14182087Y-13074460D01*
X14182087Y-13074460D02*
X14201134Y-13083984D01*
X14201134Y-13083984D02*
X14220182Y-13083984D01*
X14439230Y-12950650D02*
X14439230Y-13150650D01*
X14439230Y-12960174D02*
X14458277Y-12950650D01*
X14458277Y-12950650D02*
X14496372Y-12950650D01*
X14496372Y-12950650D02*
X14515420Y-12960174D01*
X14515420Y-12960174D02*
X14524944Y-12969698D01*
X14524944Y-12969698D02*
X14534468Y-12988746D01*
X14534468Y-12988746D02*
X14534468Y-13045888D01*
X14534468Y-13045888D02*
X14524944Y-13064936D01*
X14524944Y-13064936D02*
X14515420Y-13074460D01*
X14515420Y-13074460D02*
X14496372Y-13083984D01*
X14496372Y-13083984D02*
X14458277Y-13083984D01*
X14458277Y-13083984D02*
X14439230Y-13074460D01*
X14648753Y-13083984D02*
X14629706Y-13074460D01*
X14629706Y-13074460D02*
X14620182Y-13055412D01*
X14620182Y-13055412D02*
X14620182Y-12883984D01*
X14810658Y-13083984D02*
X14810658Y-12979222D01*
X14810658Y-12979222D02*
X14801134Y-12960174D01*
X14801134Y-12960174D02*
X14782087Y-12950650D01*
X14782087Y-12950650D02*
X14743991Y-12950650D01*
X14743991Y-12950650D02*
X14724944Y-12960174D01*
X14810658Y-13074460D02*
X14791611Y-13083984D01*
X14791611Y-13083984D02*
X14743991Y-13083984D01*
X14743991Y-13083984D02*
X14724944Y-13074460D01*
X14724944Y-13074460D02*
X14715420Y-13055412D01*
X14715420Y-13055412D02*
X14715420Y-13036365D01*
X14715420Y-13036365D02*
X14724944Y-13017317D01*
X14724944Y-13017317D02*
X14743991Y-13007793D01*
X14743991Y-13007793D02*
X14791611Y-13007793D01*
X14791611Y-13007793D02*
X14810658Y-12998269D01*
X14877325Y-12950650D02*
X14953515Y-12950650D01*
X14905896Y-12883984D02*
X14905896Y-13055412D01*
X14905896Y-13055412D02*
X14915420Y-13074460D01*
X14915420Y-13074460D02*
X14934468Y-13083984D01*
X14934468Y-13083984D02*
X14953515Y-13083984D01*
X15096372Y-13074460D02*
X15077325Y-13083984D01*
X15077325Y-13083984D02*
X15039230Y-13083984D01*
X15039230Y-13083984D02*
X15020182Y-13074460D01*
X15020182Y-13074460D02*
X15010658Y-13055412D01*
X15010658Y-13055412D02*
X15010658Y-12979222D01*
X15010658Y-12979222D02*
X15020182Y-12960174D01*
X15020182Y-12960174D02*
X15039230Y-12950650D01*
X15039230Y-12950650D02*
X15077325Y-12950650D01*
X15077325Y-12950650D02*
X15096372Y-12960174D01*
X15096372Y-12960174D02*
X15105896Y-12979222D01*
X15105896Y-12979222D02*
X15105896Y-12998269D01*
X15105896Y-12998269D02*
X15010658Y-13017317D01*
X15277325Y-13083984D02*
X15277325Y-12883984D01*
X15277325Y-13074460D02*
X15258277Y-13083984D01*
X15258277Y-13083984D02*
X15220182Y-13083984D01*
X15220182Y-13083984D02*
X15201134Y-13074460D01*
X15201134Y-13074460D02*
X15191611Y-13064936D01*
X15191611Y-13064936D02*
X15182087Y-13045888D01*
X15182087Y-13045888D02*
X15182087Y-12988746D01*
X15182087Y-12988746D02*
X15191611Y-12969698D01*
X15191611Y-12969698D02*
X15201134Y-12960174D01*
X15201134Y-12960174D02*
X15220182Y-12950650D01*
X15220182Y-12950650D02*
X15258277Y-12950650D01*
X15258277Y-12950650D02*
X15277325Y-12960174D01*
X15353515Y-13160174D02*
X15363039Y-13150650D01*
X15363039Y-13150650D02*
X15382087Y-13122079D01*
X15382087Y-13122079D02*
X15391611Y-13103031D01*
X15391611Y-13103031D02*
X15401134Y-13074460D01*
X15401134Y-13074460D02*
X15410658Y-13026841D01*
X15410658Y-13026841D02*
X15410658Y-12988746D01*
X15410658Y-12988746D02*
X15401134Y-12941127D01*
X15401134Y-12941127D02*
X15391611Y-12912555D01*
X15391611Y-12912555D02*
X15382087Y-12893508D01*
X15382087Y-12893508D02*
X15363039Y-12864936D01*
X15363039Y-12864936D02*
X15353515Y-12855412D01*
M02*
