M48
; DRILL file {KiCad 9.0.5-9.0.5~ubuntu24.04.1} date 2025-11-04T21:28:18+0100
; FORMAT={-:-/ absolute / metric / decimal}
; #@! TF.CreationDate,2025-11-04T21:28:18+01:00
; #@! TF.GenerationSoftware,Kicad,Pcbnew,9.0.5-9.0.5~ubuntu24.04.1
; #@! TF.FileFunction,Plated,1,2,PTH
FMAT,2
METRIC
; #@! TA.AperFunction,Plated,PTH,ViaDrill
T1C0.300
; #@! TA.AperFunction,Plated,PTH,ViaDrill
T2C0.600
; #@! TA.AperFunction,Plated,PTH,ComponentDrill
T3C1.000
; #@! TA.AperFunction,Plated,PTH,ComponentDrill
T4C1.190
; #@! TA.AperFunction,Plated,PTH,ComponentDrill
T5C1.500
; #@! TA.AperFunction,Plated,PTH,ViaDrill
T6C2.000
%
G90
G05
T1
X98.2Y-98.8
X98.3Y-104.3
X98.8Y-58.4
X100.54Y-72.4
X102.4Y-54.6
X107.8Y-58.2
X109.0Y-72.5
X109.6Y-69.4
X110.2Y-72.6
X111.4Y-55.0
X116.6Y-58.2
X118.5Y-83.5
X121.0Y-68.2
X122.5Y-71.0
X123.5Y-67.0
X125.4Y-82.5
X126.6Y-83.5
X128.4Y-54.4
X138.2Y-64.2
X140.5Y-67.5
X142.0Y-58.0
X142.0Y-59.0
X142.0Y-60.5
X144.316Y-81.816
X144.5Y-78.5
X145.5Y-77.0
X149.6Y-86.8
X151.0Y-104.5
X153.0Y-104.0
X153.4Y-82.566
X154.0Y-82.0
X156.0Y-86.5
X156.2Y-113.0
X159.96Y-65.797
X160.8Y-65.8
X165.0Y-60.5
X166.5Y-53.5
X167.0Y-61.5
X168.0Y-49.0
X168.5Y-102.5
X168.5Y-103.5
X169.475Y-82.525
X169.499Y-59.0
X169.5Y-56.5
X170.4Y-55.0
X171.0Y-49.5
X171.6Y-58.0
T2
X118.6Y-63.0
X127.2Y-64.2
X128.816Y-84.816
X128.816Y-93.816
X139.0Y-46.5
X181.5Y-82.0
T3
X88.75Y-95.21
X88.75Y-97.75
X173.525Y-50.475
X173.525Y-53.015
X173.525Y-55.555
X176.5Y-88.38
X176.5Y-90.92
X176.5Y-93.46
X176.5Y-96.0
X176.5Y-98.54
X176.5Y-101.08
X176.5Y-103.62
X176.5Y-106.16
X176.595Y-70.711
X176.595Y-73.251
X176.595Y-75.791
X179.04Y-88.38
X179.04Y-90.92
X179.04Y-93.46
X179.04Y-96.0
X179.04Y-98.54
X179.04Y-101.08
X179.04Y-103.62
X179.04Y-106.16
X179.135Y-70.711
X179.135Y-73.251
X179.135Y-75.791
T4
X97.46Y-47.0
X100.0Y-47.0
T5
X151.717Y-53.811
T6
X109.84Y-93.05
T3
X133.0Y-113.85G85X133.0Y-112.85
G05
X135.5Y-115.55G85X135.5Y-114.55
G05
X137.5Y-121.65G85X138.5Y-121.65
G05
X142.7Y-110.55G85X141.7Y-110.55
G05
X142.5Y-118.65G85X142.5Y-117.65
G05
M30
