G04 #@! TF.GenerationSoftware,KiCad,Pcbnew,9.0.5-9.0.5~ubuntu24.04.1*
G04 #@! TF.CreationDate,2025-11-04T21:27:29+01:00*
G04 #@! TF.ProjectId,main_board,6d61696e-5f62-46f6-9172-642e6b696361,rev?*
G04 #@! TF.SameCoordinates,Original*
G04 #@! TF.FileFunction,Soldermask,Top*
G04 #@! TF.FilePolarity,Negative*
%FSLAX46Y46*%
G04 Gerber Fmt 4.6, Leading zero omitted, Abs format (unit mm)*
G04 Created by KiCad (PCBNEW 9.0.5-9.0.5~ubuntu24.04.1) date 2025-11-04 21:27:29*
%MOMM*%
%LPD*%
G01*
G04 APERTURE LIST*
G04 Aperture macros list*
%AMRoundRect*
0 Rectangle with rounded corners*
0 $1 Rounding radius*
0 $2 $3 $4 $5 $6 $7 $8 $9 X,Y pos of 4 corners*
0 Add a 4 corners polygon primitive as box body*
4,1,4,$2,$3,$4,$5,$6,$7,$8,$9,$2,$3,0*
0 Add four circle primitives for the rounded corners*
1,1,$1+$1,$2,$3*
1,1,$1+$1,$4,$5*
1,1,$1+$1,$6,$7*
1,1,$1+$1,$8,$9*
0 Add four rect primitives between the rounded corners*
20,1,$1+$1,$2,$3,$4,$5,0*
20,1,$1+$1,$4,$5,$6,$7,0*
20,1,$1+$1,$6,$7,$8,$9,0*
20,1,$1+$1,$8,$9,$2,$3,0*%
G04 Aperture macros list end*
%ADD10RoundRect,0.150000X0.150000X-0.512500X0.150000X0.512500X-0.150000X0.512500X-0.150000X-0.512500X0*%
%ADD11RoundRect,0.250000X0.337500X0.475000X-0.337500X0.475000X-0.337500X-0.475000X0.337500X-0.475000X0*%
%ADD12RoundRect,0.250000X0.450000X-0.350000X0.450000X0.350000X-0.450000X0.350000X-0.450000X-0.350000X0*%
%ADD13RoundRect,0.250000X-0.350000X-0.450000X0.350000X-0.450000X0.350000X0.450000X-0.350000X0.450000X0*%
%ADD14C,3.200000*%
%ADD15RoundRect,0.250000X0.970000X0.310000X-0.970000X0.310000X-0.970000X-0.310000X0.970000X-0.310000X0*%
%ADD16RoundRect,0.250000X-0.600000X-0.600000X0.600000X-0.600000X0.600000X0.600000X-0.600000X0.600000X0*%
%ADD17C,1.700000*%
%ADD18RoundRect,0.250001X0.462499X0.849999X-0.462499X0.849999X-0.462499X-0.849999X0.462499X-0.849999X0*%
%ADD19RoundRect,0.250000X-0.310000X0.970000X-0.310000X-0.970000X0.310000X-0.970000X0.310000X0.970000X0*%
%ADD20RoundRect,0.150000X0.725000X0.150000X-0.725000X0.150000X-0.725000X-0.150000X0.725000X-0.150000X0*%
%ADD21RoundRect,0.250000X-0.450000X0.350000X-0.450000X-0.350000X0.450000X-0.350000X0.450000X0.350000X0*%
%ADD22RoundRect,0.250001X-0.849999X0.462499X-0.849999X-0.462499X0.849999X-0.462499X0.849999X0.462499X0*%
%ADD23RoundRect,0.250000X0.450000X-0.325000X0.450000X0.325000X-0.450000X0.325000X-0.450000X-0.325000X0*%
%ADD24RoundRect,0.250000X0.350000X0.450000X-0.350000X0.450000X-0.350000X-0.450000X0.350000X-0.450000X0*%
%ADD25RoundRect,0.250000X0.475000X-0.337500X0.475000X0.337500X-0.475000X0.337500X-0.475000X-0.337500X0*%
%ADD26RoundRect,0.250001X-0.462499X-0.849999X0.462499X-0.849999X0.462499X0.849999X-0.462499X0.849999X0*%
%ADD27R,1.700000X1.700000*%
%ADD28RoundRect,0.100000X0.637500X0.100000X-0.637500X0.100000X-0.637500X-0.100000X0.637500X-0.100000X0*%
%ADD29RoundRect,0.250000X-0.337500X-0.475000X0.337500X-0.475000X0.337500X0.475000X-0.337500X0.475000X0*%
%ADD30RoundRect,0.250000X-0.475000X0.337500X-0.475000X-0.337500X0.475000X-0.337500X0.475000X0.337500X0*%
%ADD31RoundRect,0.150000X-0.875000X-0.150000X0.875000X-0.150000X0.875000X0.150000X-0.875000X0.150000X0*%
%ADD32RoundRect,0.250000X-3.687500X-0.750000X3.687500X-0.750000X3.687500X0.750000X-3.687500X0.750000X0*%
%ADD33O,1.500000X3.000000*%
%ADD34O,2.500000X3.500000*%
%ADD35O,3.500000X2.500000*%
%ADD36O,3.100000X2.100000*%
%ADD37RoundRect,0.250000X-0.620000X-0.845000X0.620000X-0.845000X0.620000X0.845000X-0.620000X0.845000X0*%
%ADD38O,1.740000X2.190000*%
%ADD39R,1.500000X0.900000*%
%ADD40R,0.900000X1.500000*%
%ADD41R,0.900000X0.900000*%
%ADD42C,2.000000*%
%ADD43RoundRect,0.062500X-0.337500X-0.062500X0.337500X-0.062500X0.337500X0.062500X-0.337500X0.062500X0*%
%ADD44RoundRect,0.062500X-0.062500X-0.337500X0.062500X-0.337500X0.062500X0.337500X-0.062500X0.337500X0*%
%ADD45R,5.300000X5.300000*%
%ADD46RoundRect,0.150000X0.150000X-0.587500X0.150000X0.587500X-0.150000X0.587500X-0.150000X-0.587500X0*%
%ADD47RoundRect,0.150000X-0.512500X-0.150000X0.512500X-0.150000X0.512500X0.150000X-0.512500X0.150000X0*%
G04 APERTURE END LIST*
D10*
X124990115Y-56270357D03*
X125940115Y-56270357D03*
X126890115Y-56270357D03*
X126890115Y-53995357D03*
X125940115Y-53995357D03*
X124990115Y-53995357D03*
D11*
X100000000Y-51600000D03*
X97925000Y-51600000D03*
D12*
X117500000Y-73000000D03*
X117500000Y-71000000D03*
D13*
X145495742Y-85499544D03*
X147495742Y-85499544D03*
D14*
X91000000Y-48500000D03*
D15*
X173591764Y-62381370D03*
X164981764Y-62381370D03*
D16*
X176594775Y-70711128D03*
D17*
X179134775Y-70711128D03*
X176594775Y-73251128D03*
X179134775Y-73251128D03*
X176594775Y-75791128D03*
X179134775Y-75791128D03*
D18*
X102325000Y-100210000D03*
X100000000Y-100210000D03*
D11*
X115228811Y-62380017D03*
X113153811Y-62380017D03*
D19*
X131500000Y-47195000D03*
X131500000Y-55805000D03*
D12*
X105083189Y-56349705D03*
X105083189Y-54349705D03*
D20*
X141708842Y-82098842D03*
X141708842Y-80828842D03*
X141708842Y-79558842D03*
X141708842Y-78288842D03*
X141708842Y-77018842D03*
X141708842Y-75748842D03*
X141708842Y-74478842D03*
X141708842Y-73208842D03*
X136558842Y-73208842D03*
X136558842Y-74478842D03*
X136558842Y-75748842D03*
X136558842Y-77018842D03*
X136558842Y-78288842D03*
X136558842Y-79558842D03*
X136558842Y-80828842D03*
X136558842Y-82098842D03*
D21*
X136500000Y-50500000D03*
X136500000Y-52500000D03*
D10*
X98100000Y-56240886D03*
X99050000Y-56240886D03*
X100000000Y-56240886D03*
X100000000Y-53965886D03*
X99050000Y-53965886D03*
X98100000Y-53965886D03*
D22*
X118500000Y-58837500D03*
X118500000Y-61162500D03*
D23*
X104500000Y-99235000D03*
X104500000Y-97185000D03*
D24*
X170500000Y-105000000D03*
X168500000Y-105000000D03*
D25*
X108980000Y-76825000D03*
X108980000Y-74750000D03*
D22*
X127200000Y-58675000D03*
X127200000Y-61000000D03*
D10*
X116050000Y-56637500D03*
X117000000Y-56637500D03*
X117950000Y-56637500D03*
X117950000Y-54362500D03*
X117000000Y-54362500D03*
X116050000Y-54362500D03*
D11*
X118037500Y-52000000D03*
X115962500Y-52000000D03*
D26*
X99837500Y-94710000D03*
X102162500Y-94710000D03*
D24*
X115311333Y-59470129D03*
X113311333Y-59470129D03*
D21*
X151000000Y-100000000D03*
X151000000Y-102000000D03*
D25*
X141500000Y-48537500D03*
X141500000Y-46462500D03*
D12*
X96021839Y-56084269D03*
X96021839Y-54084269D03*
D24*
X170500000Y-101000000D03*
X168500000Y-101000000D03*
D11*
X133843276Y-91310952D03*
X131768276Y-91310952D03*
D13*
X120750000Y-88760000D03*
X122750000Y-88760000D03*
D27*
X88750000Y-95210000D03*
D17*
X88750000Y-97750000D03*
D25*
X111990000Y-76825000D03*
X111990000Y-74750000D03*
D24*
X124500000Y-61000000D03*
X122500000Y-61000000D03*
D11*
X97617758Y-63502033D03*
X95542758Y-63502033D03*
X126837499Y-51985596D03*
X124762499Y-51985596D03*
D28*
X142416342Y-92016342D03*
X142416342Y-91366342D03*
X142416342Y-90716342D03*
X142416342Y-90066342D03*
X142416342Y-89416342D03*
X142416342Y-88766342D03*
X142416342Y-88116342D03*
X142416342Y-87466342D03*
X142416342Y-86816342D03*
X142416342Y-86166342D03*
X136691342Y-86166342D03*
X136691342Y-86816342D03*
X136691342Y-87466342D03*
X136691342Y-88116342D03*
X136691342Y-88766342D03*
X136691342Y-89416342D03*
X136691342Y-90066342D03*
X136691342Y-90716342D03*
X136691342Y-91366342D03*
X136691342Y-92016342D03*
D29*
X113425000Y-86250000D03*
X115500000Y-86250000D03*
D13*
X120750000Y-91710000D03*
X122750000Y-91710000D03*
D24*
X124500000Y-58500000D03*
X122500000Y-58500000D03*
D30*
X142815529Y-93814866D03*
X142815529Y-95889866D03*
D31*
X156200000Y-90070000D03*
X156200000Y-91340000D03*
X156200000Y-92610000D03*
X156200000Y-93880000D03*
X156200000Y-95150000D03*
X156200000Y-96420000D03*
X156200000Y-97690000D03*
X156200000Y-98960000D03*
X156200000Y-100230000D03*
X156200000Y-101500000D03*
X156200000Y-102770000D03*
X156200000Y-104040000D03*
X156200000Y-105310000D03*
X156200000Y-106580000D03*
X165500000Y-106580000D03*
X165500000Y-105310000D03*
X165500000Y-104040000D03*
X165500000Y-102770000D03*
X165500000Y-101500000D03*
X165500000Y-100230000D03*
X165500000Y-98960000D03*
X165500000Y-97690000D03*
X165500000Y-96420000D03*
X165500000Y-95150000D03*
X165500000Y-93880000D03*
X165500000Y-92610000D03*
X165500000Y-91340000D03*
X165500000Y-90070000D03*
D30*
X135316342Y-93816342D03*
X135316342Y-95891342D03*
X140316342Y-93816342D03*
X140316342Y-95891342D03*
D11*
X124537500Y-63500000D03*
X122462500Y-63500000D03*
D24*
X97542758Y-61002033D03*
X95542758Y-61002033D03*
D32*
X112875000Y-103960000D03*
X124750000Y-103960000D03*
D11*
X110825000Y-80250000D03*
X108750000Y-80250000D03*
D12*
X169500000Y-91000000D03*
X169500000Y-89000000D03*
D29*
X116325000Y-96000000D03*
X118400000Y-96000000D03*
D24*
X97542758Y-58502033D03*
X95542758Y-58502033D03*
D33*
X133000000Y-113350000D03*
D34*
X135500000Y-115050000D03*
D35*
X138000000Y-121650000D03*
D34*
X142500000Y-118150000D03*
D36*
X142200000Y-110550000D03*
D22*
X109581156Y-58685172D03*
X109581156Y-61010172D03*
D29*
X116362500Y-98000000D03*
X118437500Y-98000000D03*
D37*
X97460000Y-47000000D03*
D38*
X100000000Y-47000000D03*
D11*
X102150000Y-97460000D03*
X100075000Y-97460000D03*
D39*
X144458107Y-46098181D03*
X144458107Y-47368181D03*
X144458107Y-48638181D03*
X144458107Y-49908181D03*
X144458107Y-51178181D03*
X144458107Y-52448181D03*
X144458107Y-53718181D03*
X144458107Y-54988181D03*
X144458107Y-56258181D03*
X144458107Y-57528181D03*
X144458107Y-58798181D03*
X144458107Y-60068181D03*
X144458107Y-61338181D03*
X144458107Y-62608181D03*
D40*
X147493107Y-63858181D03*
X148763107Y-63858181D03*
X150033107Y-63858181D03*
X151303107Y-63858181D03*
X152573107Y-63858181D03*
X153843107Y-63858181D03*
X155113107Y-63858181D03*
X156383107Y-63858181D03*
X157653107Y-63858181D03*
X158923107Y-63858181D03*
D39*
X161958107Y-62608181D03*
X161958107Y-61338181D03*
X161958107Y-60068181D03*
X161958107Y-58798181D03*
X161958107Y-57528181D03*
X161958107Y-56258181D03*
X161958107Y-54988181D03*
X161958107Y-53718181D03*
X161958107Y-52448181D03*
X161958107Y-51178181D03*
X161958107Y-49908181D03*
X161958107Y-48638181D03*
X161958107Y-47368181D03*
X161958107Y-46098181D03*
D41*
X150308107Y-52418181D03*
X150308107Y-53818181D03*
X150308107Y-55218181D03*
X151708107Y-52418181D03*
X151708107Y-55218181D03*
D42*
X151717486Y-53811289D03*
D41*
X153108107Y-52418181D03*
X153108107Y-53818181D03*
X153108107Y-55218181D03*
D12*
X119750000Y-73000000D03*
X119750000Y-71000000D03*
D24*
X106540170Y-58835163D03*
X104540170Y-58835163D03*
D14*
X181000000Y-48500000D03*
D11*
X139475000Y-101200000D03*
X137400000Y-101200000D03*
D14*
X90997931Y-118489956D03*
D30*
X153500000Y-100000000D03*
X153500000Y-102075000D03*
D12*
X123000000Y-56000000D03*
X123000000Y-54000000D03*
D29*
X113425000Y-83240000D03*
X115500000Y-83240000D03*
D25*
X136500000Y-48537500D03*
X136500000Y-46462500D03*
D13*
X141477755Y-103219101D03*
X143477755Y-103219101D03*
D29*
X111325000Y-100000000D03*
X113400000Y-100000000D03*
D30*
X137816342Y-93816342D03*
X137816342Y-95891342D03*
D21*
X148500000Y-100000000D03*
X148500000Y-102000000D03*
D24*
X143471285Y-101223996D03*
X141471285Y-101223996D03*
X106540170Y-61335163D03*
X104540170Y-61335163D03*
D12*
X114000000Y-56500000D03*
X114000000Y-54500000D03*
D13*
X120750000Y-82860000D03*
X122750000Y-82860000D03*
D11*
X110825000Y-83250000D03*
X108750000Y-83250000D03*
D21*
X139000000Y-48500000D03*
X139000000Y-50500000D03*
D11*
X106577670Y-63835163D03*
X104502670Y-63835163D03*
X110798078Y-86256120D03*
X108723078Y-86256120D03*
D29*
X104425000Y-106960000D03*
X106500000Y-106960000D03*
D43*
X106390000Y-90300000D03*
X106390000Y-90800000D03*
X106390000Y-91300000D03*
X106390000Y-91800000D03*
X106390000Y-92300000D03*
X106390000Y-92800000D03*
X106390000Y-93300000D03*
X106390000Y-93800000D03*
X106390000Y-94300000D03*
X106390000Y-94800000D03*
X106390000Y-95300000D03*
X106390000Y-95800000D03*
D44*
X107090000Y-96500000D03*
X107590000Y-96500000D03*
X108090000Y-96500000D03*
X108590000Y-96500000D03*
X109090000Y-96500000D03*
X109590000Y-96500000D03*
X110090000Y-96500000D03*
X110590000Y-96500000D03*
X111090000Y-96500000D03*
X111590000Y-96500000D03*
X112090000Y-96500000D03*
X112590000Y-96500000D03*
D43*
X113290000Y-95800000D03*
X113290000Y-95300000D03*
X113290000Y-94800000D03*
X113290000Y-94300000D03*
X113290000Y-93800000D03*
X113290000Y-93300000D03*
X113290000Y-92800000D03*
X113290000Y-92300000D03*
X113290000Y-91800000D03*
X113290000Y-91300000D03*
X113290000Y-90800000D03*
X113290000Y-90300000D03*
D44*
X112590000Y-89600000D03*
X112090000Y-89600000D03*
X111590000Y-89600000D03*
X111090000Y-89600000D03*
X110590000Y-89600000D03*
X110090000Y-89600000D03*
X109590000Y-89600000D03*
X109090000Y-89600000D03*
X108590000Y-89600000D03*
X108090000Y-89600000D03*
X107590000Y-89600000D03*
X107090000Y-89600000D03*
D45*
X109840000Y-93050000D03*
D13*
X131805776Y-86311379D03*
X133805776Y-86311379D03*
D10*
X107077722Y-56478121D03*
X108027722Y-56478121D03*
X108977722Y-56478121D03*
X108977722Y-54203121D03*
X108027722Y-54203121D03*
X107077722Y-54203121D03*
D30*
X132816342Y-93816342D03*
X132816342Y-95891342D03*
D14*
X180991881Y-118491881D03*
D29*
X95712500Y-94710000D03*
X97787500Y-94710000D03*
X113425000Y-80230000D03*
X115500000Y-80230000D03*
D30*
X145315529Y-93777366D03*
X145315529Y-95852366D03*
D13*
X120750000Y-85810000D03*
X122750000Y-85810000D03*
D29*
X100425000Y-104460000D03*
X102500000Y-104460000D03*
D11*
X139474127Y-103219101D03*
X137399127Y-103219101D03*
D29*
X104500000Y-104460000D03*
X106575000Y-104460000D03*
D11*
X133853842Y-88816342D03*
X131778842Y-88816342D03*
D46*
X92100000Y-97210000D03*
X94000000Y-97210000D03*
X93050000Y-95335000D03*
D22*
X100539547Y-58495650D03*
X100539547Y-60820650D03*
D25*
X115000000Y-76825000D03*
X115000000Y-74750000D03*
D11*
X109066335Y-51847672D03*
X106991335Y-51847672D03*
D16*
X176500000Y-88380000D03*
D17*
X179040000Y-88380000D03*
X176500000Y-90920000D03*
X179040000Y-90920000D03*
X176500000Y-93460000D03*
X179040000Y-93460000D03*
X176500000Y-96000000D03*
X179040000Y-96000000D03*
X176500000Y-98540000D03*
X179040000Y-98540000D03*
X176500000Y-101080000D03*
X179040000Y-101080000D03*
X176500000Y-103620000D03*
X179040000Y-103620000D03*
X176500000Y-106160000D03*
X179040000Y-106160000D03*
D27*
X173525000Y-50475000D03*
D17*
X173525000Y-53015000D03*
X173525000Y-55555000D03*
D29*
X104500000Y-101960000D03*
X106575000Y-101960000D03*
D30*
X147800000Y-91525000D03*
X147800000Y-93600000D03*
D47*
X169444017Y-93041424D03*
X169444017Y-94941424D03*
X171719017Y-93991424D03*
D25*
X145200000Y-92037500D03*
X145200000Y-89962500D03*
M02*
